<svg width="390" height="133" viewBox="0 0 390 133" fill="none" xmlns="http://www.w3.org/2000/svg">
<path d="M242.06 25.8604C241.95 15.9604 237.91 7.51035 232.54 3.86035V1.86035L217.74 2.01035C209.41 2.10035 202.74 13.0103 202.91 26.3103C203.08 39.6103 209.91 50.3803 218.25 50.3103L233.05 50.1604V48.1604C238.25 44.2904 242.11 35.7604 242.06 25.8604Z" fill="#FFE031" stroke="#3D3D3D" stroke-width="1.05" stroke-linecap="round" stroke-linejoin="round"/>
<path d="M248.7 25.79C248.59 15.39 244.58 6.51002 238.94 2.65002V0.52002L232.6 0.590027C223.84 0.680027 216.87 12.11 217.02 26.12C217.17 40.13 224.38 51.41 233.14 51.32L239.48 51.25V49.13C244.99 45.15 248.81 36.15 248.7 25.79Z" fill="white" stroke="#3D3D3D" stroke-width="1.05" stroke-linecap="round" stroke-linejoin="round"/>
<path d="M255.06 25.7202C255.21 39.7202 248.23 51.1602 239.48 51.2502C230.73 51.3402 223.48 40.0602 223.36 26.0602C223.24 12.0602 230.19 0.62019 238.94 0.52019C247.69 0.42019 254.89 11.7102 255.06 25.7202Z" fill="#414141"/>
<path d="M251.421 25.2904C251.491 31.9204 248.181 37.3404 244.031 37.3904C239.881 37.4404 236.461 32.0804 236.391 25.3904C236.321 18.7004 239.631 13.3904 243.781 13.2904C247.931 13.1904 251.351 18.6504 251.421 25.2904Z" fill="#A7A7A7" stroke="#3D3D3D" stroke-width="1.05" stroke-linecap="round" stroke-linejoin="round"/>
<path d="M245.34 25.7402C245.34 25.7402 260.06 30.4502 268.91 41.4502C277.76 52.4502 283.57 50.8702 294.57 47.2102C305.57 43.5502 309.76 30.4502 324.95 41.4502C340.14 52.4502 343.28 56.6303 355.85 50.3503C368.42 44.0703 375.22 28.8802 386.75 34.1102C398.28 39.3402 393.03 66.1102 394.08 79.1102C395.13 92.1102 393.55 124.68 396.17 128.87C398.79 133.06 425.5 129.87 425.5 129.87" stroke="#FFE031" stroke-width="3.14" stroke-linecap="round" stroke-linejoin="round"/>
<path d="M142.7 26.2602C142.7 26.2602 130.7 24.6902 125.41 33.0702C120.12 41.4502 110.23 70.7702 91.9003 75.4902C73.5703 80.2102 68.3303 42.4902 57.3303 43.5402C46.8503 44.5402 39.5303 43.5402 33.2403 55.0602C29.8803 61.2302 13.0803 128.6 5.14031 129.29C-20.1497 131.5 -36.4297 130.06 -36.4297 130.06" stroke="#FFE031" stroke-width="3.14" stroke-linecap="round" stroke-linejoin="round"/>
<path d="M171.55 26.6701C170.74 17.9401 166.55 10.7701 161.55 7.92014L161.39 6.14014L148.33 7.35013C140.98 8.03013 135.91 18.1201 137 29.8801C138.09 41.6401 144.93 50.6101 152.28 49.8801L165.34 48.6701L165.17 46.8901C169.57 43.2101 172.36 35.4001 171.55 26.6701Z" fill="#FFE031" stroke="#3D3D3D" stroke-width="1.05" stroke-linecap="round" stroke-linejoin="round"/>
<path d="M177.46 26.1501C176.61 16.9801 172.46 9.43005 167.17 6.43005L166.99 4.56006L161.4 5.08005C153.68 5.80005 148.35 16.3901 149.49 28.7501C150.63 41.1101 157.83 50.5401 165.55 49.8201L171.14 49.3L170.97 47.4301C175.59 43.4901 178.31 35.2901 177.46 26.1501Z" fill="white" stroke="#414141" stroke-width="1.05" stroke-linecap="round" stroke-linejoin="round"/>
<path d="M183.06 25.6003C184.21 37.9603 178.88 48.5503 171.15 49.2703C163.42 49.9903 156.23 40.5503 155.06 28.2003C153.89 15.8503 159.24 5.20032 166.96 4.53032C174.68 3.86032 181.9 13.2503 183.06 25.6003Z" fill="white" stroke="#414141" stroke-width="1.05" stroke-linecap="round" stroke-linejoin="round"/>
<path d="M189.06 18.3801L167.37 20.3801C167.066 20.409 166.76 20.3776 166.468 20.2876C166.176 20.1976 165.904 20.0508 165.669 19.8557C165.434 19.6606 165.24 19.421 165.098 19.1506C164.956 18.8802 164.868 18.5844 164.84 18.2802C164.812 17.976 164.843 17.6692 164.933 17.3772C165.023 17.0853 165.17 16.814 165.365 16.5789C165.56 16.3438 165.8 16.1496 166.07 16.0074C166.34 15.8652 166.636 15.7778 166.94 15.7502L188.63 13.7502C188.935 13.7212 189.241 13.7527 189.533 13.8427C189.825 13.9327 190.097 14.0795 190.332 14.2746C190.567 14.4697 190.761 14.7093 190.903 14.9797C191.045 15.2501 191.133 15.5459 191.16 15.8501C191.189 16.1543 191.158 16.4611 191.068 16.7531C190.978 17.045 190.831 17.3163 190.636 17.5514C190.441 17.7865 190.201 17.9807 189.931 18.1229C189.661 18.2651 189.365 18.3525 189.06 18.3801Z" fill="#A7A7A7" stroke="#414141" stroke-width="1.05" stroke-linecap="round" stroke-linejoin="round"/>
<path d="M190.67 35.5704L168.98 37.5704C168.676 37.5993 168.369 37.5678 168.077 37.4778C167.785 37.3878 167.514 37.241 167.279 37.0459C167.044 36.8508 166.849 36.6112 166.707 36.3408C166.565 36.0704 166.477 35.7746 166.45 35.4703C166.421 35.1662 166.452 34.8594 166.542 34.5674C166.632 34.2755 166.779 34.0042 166.974 33.7691C167.169 33.534 167.409 33.3398 167.679 33.1976C167.95 33.0554 168.246 32.9679 168.55 32.9403L190.24 30.9403C190.853 30.8874 191.462 31.0781 191.936 31.4711C192.409 31.8642 192.709 32.428 192.77 33.0404C192.799 33.3445 192.767 33.6513 192.677 33.9433C192.587 34.2352 192.441 34.5065 192.245 34.7416C192.05 34.9767 191.811 35.1709 191.54 35.3131C191.27 35.4553 190.974 35.5428 190.67 35.5704Z" fill="#A7A7A7" stroke="#414141" stroke-width="1.05" stroke-linecap="round" stroke-linejoin="round"/>
</svg>
