<svg width="16" height="14" viewBox="0 0 16 14" fill="none" xmlns="http://www.w3.org/2000/svg">
<path d="M14.4071 13.3514H1.38565C0.547809 13.3514 0 12.7249 0 11.9254V4.71953C0 3.89007 0.576 3.18937 1.38565 3.18937H5.23454L5.52533 1.80677C5.69676 1.11927 6.30324 0.648926 7.00343 0.648926H8.92775C9.62794 0.648926 10.2347 1.11927 10.4028 1.79305L10.6964 3.18937H14.4071C15.2117 3.18937 16 3.89007 16 4.71953V11.9254C16 12.7383 15.2536 13.3514 14.4071 13.3514ZM1.38565 3.95153C0.995556 3.95153 0.761905 4.31039 0.761905 4.71953V11.9254C0.761905 12.3101 0.96127 12.5892 1.38565 12.5892H14.4071C14.8259 12.5892 15.2381 12.3101 15.2381 11.9254V4.71953C15.2381 4.31039 14.7921 3.95153 14.4071 3.95153H10.387C10.2067 3.95153 10.0513 3.82531 10.0145 3.64905L9.66044 1.96372C9.58044 1.64423 9.27771 1.41108 8.92775 1.41108H7.00343C6.65346 1.41108 6.35098 1.64423 6.26768 1.97743L5.9167 3.64905C5.87962 3.82531 5.72419 3.95153 5.54387 3.95153H1.38565Z" fill="#414141"/>
<path d="M7.81257 10.6777C6.41295 10.6777 5.27441 9.53864 5.27441 8.13902C5.27441 6.73889 6.41295 5.6001 7.81257 5.6001C9.21168 5.6001 10.3505 6.73889 10.3505 8.13902C10.3505 9.53864 9.21168 10.6777 7.81257 10.6777ZM7.81257 6.36226C6.83302 6.36226 6.03632 7.15921 6.03632 8.13902C6.03632 9.11857 6.83302 9.91553 7.81257 9.91553C8.79187 9.91553 9.58857 9.11857 9.58857 8.13902C9.58857 7.15921 8.79187 6.36226 7.81257 6.36226Z" fill="#414141"/>
<path d="M7.81298 12.0389C5.66314 12.0389 3.91406 10.2893 3.91406 8.1392C3.91406 5.98859 5.66314 4.23926 7.81298 4.23926C9.96257 4.23926 11.7114 5.98859 11.7114 8.1392C11.7114 10.2893 9.96257 12.0389 7.81298 12.0389ZM7.81298 5.00116C6.08321 5.00116 4.67597 6.40891 4.67597 8.1392C4.67597 9.86923 6.08321 11.2767 7.81298 11.2767C9.54251 11.2767 10.9495 9.86923 10.9495 8.1392C10.9495 6.40891 9.54251 5.00116 7.81298 5.00116Z" fill="#414141"/>
<path d="M4.4625 2.42743H2.43076C2.22047 2.42743 2.0498 2.25677 2.0498 2.04648C2.0498 1.83619 2.22047 1.66553 2.43076 1.66553H4.4625C4.67279 1.66553 4.84346 1.83619 4.84346 2.04648C4.84346 2.25677 4.67279 2.42743 4.4625 2.42743Z" fill="#414141"/>
<path d="M12.5545 1.91943H12.7125C13.3166 1.91943 13.7144 2.39715 13.7144 3.00159V3.44375H11.6826V3.00159C11.6826 2.39715 11.9503 1.91943 12.5545 1.91943Z" fill="#414141"/>
</svg>
