<svg width="305" height="220" viewBox="0 0 305 220" fill="none" xmlns="http://www.w3.org/2000/svg">
<g clip-path="url(#clip0_448_968)">
<path d="M133.111 193.975L133.573 183.573C138.393 180.995 143.77 179.634 149.235 179.606C141.713 185.759 142.653 197.62 137.553 205.895C135.943 208.463 133.775 210.636 131.212 212.253C128.648 213.869 125.753 214.888 122.742 215.233L116.448 219.089C115.584 214.271 115.774 209.323 117.006 204.586C118.237 199.849 120.481 195.436 123.581 191.65C125.342 189.543 127.36 187.667 129.589 186.064C131.097 190.042 133.111 193.975 133.111 193.975Z" fill="#F2F2F2"/>
<path d="M173.126 49.2551C173.292 51.6198 173.988 53.9168 175.163 55.9751C177.64 60.3273 181.888 63.4783 186.462 65.3512C192.178 67.6911 198.549 67.7632 204.614 67.2415C210.248 66.7569 215.824 65.6336 221.479 65.402C225.852 65.262 230.229 65.3665 234.59 65.7149C243.051 66.3158 251.477 67.4306 259.849 68.7821C262.116 69.1437 264.379 69.5321 266.636 69.9475C266.85 69.9663 267.061 70.0056 267.267 70.0647C267.308 70.0815 267.374 70.0684 267.411 70.092C267.479 70.1349 267.136 69.9831 267.344 70.1554C267.634 70.4603 267.893 70.7938 268.117 71.1507L271.209 75.1317C272.095 76.2733 272.918 77.6603 274.064 78.5602C274.872 79.1847 275.847 79.5559 276.866 79.6269C277.884 79.698 278.901 79.4657 279.788 78.9593C280.714 78.3736 281.453 77.534 281.916 76.5404C282.627 75.2353 283.476 74.01 284.447 72.8853C288.126 68.5919 293.238 65.9511 297.514 62.3387C299.585 60.6605 301.353 58.6388 302.74 56.3619C303.923 54.3014 304.659 52.0145 304.899 49.6503C305.411 44.8492 303.939 39.953 301.462 35.8685C298.768 31.4805 294.898 27.9364 290.291 25.6389C285.116 23.0011 279.39 21.7162 273.65 21.076C267.556 20.3962 261.391 20.3983 255.266 20.4669C248.394 20.5435 241.533 20.8459 234.685 21.3741C227.828 21.9051 220.997 22.66 214.194 23.6386C207.666 24.5776 201.058 25.5564 194.668 27.2179C189.023 28.6858 183.394 30.9801 179.179 35.1371C175.431 38.8333 172.824 43.8913 173.126 49.2551Z" fill="#A7A7A7"/>
<path d="M202.951 29.9572C196.857 31.0821 190.48 32.4594 185.366 35.7953C180.309 39.0946 177.235 44.2817 177.534 49.0101C177.971 55.9167 185.31 61.0815 191.994 62.4347C198.396 63.7303 205.065 62.8529 212.126 61.9234C213.689 61.7178 215.304 61.505 216.903 61.3201C234.284 59.3101 266.918 65.5015 268.299 65.766L269.734 66.0409L277.331 75.8217C279.061 71.9699 282.067 68.5442 285.26 65.9916C286.721 64.8231 288.246 63.7381 289.721 62.6887C293.483 60.0121 297.036 57.4836 298.998 54.01C303.269 46.4453 298.222 35.8971 291.021 31.1616C282.908 25.8266 272.216 24.9898 261.871 24.8799C260.794 24.8685 259.716 24.8628 258.637 24.8628C239.959 24.8656 221.32 26.5708 202.951 29.9572Z" fill="white"/>
<path d="M198.089 38.3176C198.089 38.1079 198.13 37.9001 198.21 37.7063C198.29 37.5124 198.407 37.3362 198.555 37.1877C198.703 37.0393 198.879 36.9214 199.073 36.841C199.266 36.7605 199.474 36.719 199.683 36.7188H273.044C273.468 36.7188 273.874 36.887 274.173 37.1866C274.472 37.4861 274.64 37.8924 274.64 38.316C274.64 38.7396 274.472 39.1458 274.173 39.4454C273.874 39.7449 273.468 39.9132 273.044 39.9132H199.683C199.261 39.9127 198.855 39.7445 198.556 39.4454C198.257 39.1462 198.089 38.7407 198.089 38.3176Z" fill="#A7A7A7"/>
<path d="M198.089 48.1204C198.089 47.9106 198.13 47.7029 198.21 47.509C198.29 47.3151 198.407 47.1389 198.555 46.9905C198.703 46.842 198.879 46.7242 199.073 46.6437C199.266 46.5632 199.474 46.5217 199.683 46.5215H273.048C273.257 46.5217 273.465 46.5632 273.658 46.6437C273.852 46.7242 274.028 46.842 274.176 46.9905C274.324 47.139 274.441 47.3151 274.521 47.509C274.601 47.7029 274.642 47.9106 274.642 48.1204C274.642 48.3301 274.6 48.5378 274.52 48.7315C274.44 48.9252 274.322 49.1011 274.173 49.2493C274.025 49.3974 273.849 49.5149 273.655 49.595C273.462 49.675 273.254 49.7161 273.044 49.7159H199.683C199.261 49.7155 198.855 49.5472 198.556 49.2481C198.257 48.949 198.089 48.5434 198.089 48.1204Z" fill="#A7A7A7"/>
<path d="M262.901 57.9226C262.901 57.7129 262.942 57.5051 263.022 57.3113C263.102 57.1174 263.22 56.9412 263.368 56.7927C263.516 56.6443 263.692 56.5264 263.885 56.446C264.079 56.3655 264.286 56.3239 264.496 56.3237H273.045C273.468 56.3237 273.874 56.492 274.174 56.7915C274.473 57.0911 274.641 57.4973 274.641 57.921C274.641 58.3446 274.473 58.7508 274.174 59.0503C273.874 59.3499 273.468 59.5182 273.045 59.5182H264.496C264.073 59.5177 263.668 59.3495 263.369 59.0504C263.07 58.7512 262.902 58.3456 262.901 57.9226Z" fill="#A7A7A7"/>
<path d="M102.447 30.5306C101.684 28.767 100.527 27.2024 99.0634 25.9577C97.6001 24.7129 95.8704 23.8213 94.0079 23.3516C89.8728 22.2755 83.818 23.9147 80.7093 26.2685C75.023 30.5739 73.6353 45.3645 77.5421 50.0385C78.3191 50.0073 81.0005 49.9841 81.787 49.9618L82.8995 47.1446V49.934C89.0383 49.7899 95.4293 49.8801 101.824 49.9734C102.397 46.6642 103.762 33.7139 102.447 30.5306Z" fill="#2F2E41"/>
<path d="M101.404 208.882H107.004L109.667 187.274L101.403 187.274L101.404 208.882Z" fill="#9E616A"/>
<path d="M52.3906 205.398L57.8085 206.811L65.8337 186.574L57.8368 184.489L52.3906 205.398Z" fill="#9E616A"/>
<path d="M83.246 76.1699L81.9775 79.4701L82.2314 82.7703L107.061 91.3746L105.829 76.9315L103.037 73.6309L83.246 76.1699Z" fill="#FFB6B6"/>
<path d="M93.8984 46.4709C98.7961 46.4709 102.767 42.4985 102.767 37.5982C102.767 32.698 98.7961 28.7256 93.8984 28.7256C89.0007 28.7256 85.0303 32.698 85.0303 37.5982C85.0303 42.4985 89.0007 46.4709 93.8984 46.4709Z" fill="#9E616A"/>
<path d="M99.9913 26.0448C98.2874 25.0055 96.3356 24.4433 94.3402 24.417C92.3447 24.3907 90.3788 24.9012 88.6481 25.8952C86.9173 26.8892 85.4852 28.3302 84.5016 30.0675C83.518 31.8048 83.019 33.7746 83.0567 35.7709C87.8907 37.007 93.0421 37.5241 98.5011 36.0686L99.749 33.013L100.485 36.0709C102.155 37.2463 103.767 37.2441 105.321 36.0645C105.386 34.0738 104.929 32.1007 103.994 30.3424C103.059 28.5841 101.678 27.1022 99.9913 26.0448Z" fill="#2F2E41"/>
<path d="M100.016 206.118L108.867 205.589V209.383L117.282 215.198C117.698 215.485 118.011 215.898 118.176 216.375C118.34 216.853 118.348 217.371 118.198 217.854C118.048 218.336 117.747 218.758 117.34 219.057C116.933 219.357 116.441 219.518 115.936 219.518H105.399L103.583 215.765L102.873 219.518H98.9004L100.016 206.118Z" fill="#2F2E41"/>
<path d="M51.2522 202.246L59.9503 203.968L58.9938 207.639L65.6707 215.39C66.0005 215.772 66.1994 216.25 66.2384 216.754C66.2773 217.258 66.1543 217.761 65.8872 218.19C65.6201 218.619 65.223 218.951 64.7538 219.139C64.2846 219.326 63.7679 219.358 63.2791 219.23L53.0823 216.571L52.2709 212.481L50.6385 215.934L46.7939 214.931L51.2522 202.246Z" fill="#2F2E41"/>
<path d="M53.0776 191.81L69.4898 158.061L74.6419 116.984C71.0896 110.383 77.6867 96.9525 77.6867 96.9525V91.3135L103.242 96.1371V96.1371C108.469 110.401 111.004 125.511 110.717 140.701L109.688 195.304H110.011C110.547 195.304 111.061 195.517 111.44 195.896C111.819 196.275 112.032 196.789 112.032 197.326C112.032 197.862 111.819 198.376 111.44 198.756C111.061 199.135 110.547 199.348 110.011 199.348H99.905C99.369 199.348 98.8549 199.135 98.4759 198.756C98.0968 198.376 97.8839 197.862 97.8839 197.326C97.8839 196.789 98.0968 196.275 98.4759 195.896C98.8549 195.517 99.369 195.304 99.905 195.304H100.166L92.9109 125.839L84.4755 160.118L64.0903 191.68C64.6103 191.721 65.0944 191.961 65.4408 192.351C65.7872 192.741 65.9691 193.251 65.9482 193.772C65.9272 194.293 65.7051 194.786 65.3286 195.147C64.952 195.508 64.4502 195.709 63.9286 195.708H53.8229C53.3529 195.709 52.8974 195.545 52.535 195.245C52.1726 194.946 51.926 194.529 51.8377 194.068C51.7494 193.606 51.8249 193.127 52.0512 192.715C52.2776 192.303 52.6405 191.983 53.0776 191.81Z" fill="#2F2E41"/>
<path d="M75.3762 100.41H75.3762C75.4602 100.08 75.6464 99.7848 75.9082 99.5672C76.17 99.3496 76.4939 99.2205 76.8335 99.1985C77.1704 95.3453 79.3961 70.6337 79.4807 69.9088L79.484 69.8781L80.1285 56.104C80.1519 55.6037 80.3587 55.1296 80.7093 54.7722C81.06 54.4149 81.5299 54.1993 82.0294 54.1666L85.4333 53.944C85.48 53.9424 85.5243 53.9227 85.5567 53.8891C85.5892 53.8555 85.6074 53.8106 85.6074 53.7639C85.6074 53.3878 85.6814 53.0154 85.8253 52.6679C85.9691 52.3204 86.18 52.0047 86.4458 51.7388C86.7116 51.4728 87.0271 51.2618 87.3744 51.1179C87.7217 50.974 88.094 50.8999 88.4699 50.8999H98.5478C99.2005 50.9002 99.8308 51.1388 100.32 51.571C100.81 52.0031 101.125 52.5992 101.206 53.2472C101.21 53.2918 101.231 53.3331 101.265 53.3628C101.299 53.3925 101.342 53.4084 101.387 53.4074L101.388 53.4074C102.533 53.3837 103.649 53.7717 104.533 54.5007C105.416 55.2297 106.01 56.2515 106.205 57.3807C107.582 65.401 110.344 83.6042 108.978 93.7241C108.503 97.247 108.719 102.545 108.899 105.493C108.917 105.778 108.878 106.063 108.786 106.333C108.693 106.603 108.548 106.852 108.359 107.066C108.761 107.182 109.102 107.45 109.311 107.812C109.519 108.175 109.579 108.605 109.477 109.011H109.477C109.372 109.427 109.107 109.784 108.739 110.004C108.37 110.224 107.93 110.289 107.514 110.184L76.5488 102.374C76.133 102.269 75.7759 102.003 75.5559 101.635C75.336 101.266 75.2714 100.826 75.3762 100.41Z" fill="#A7A7A7"/>
<path d="M169.199 220H0.481305C0.353654 220 0.231233 219.95 0.140971 219.859C0.0507081 219.769 0 219.646 0 219.519C0 219.391 0.0507081 219.268 0.140971 219.178C0.231233 219.088 0.353654 219.037 0.481305 219.037H169.199C169.327 219.037 169.449 219.088 169.54 219.178C169.63 219.268 169.681 219.391 169.681 219.519C169.681 219.646 169.63 219.769 169.54 219.859C169.449 219.95 169.327 220 169.199 220Z" fill="#CACACA"/>
<path d="M76.8037 123.647C77.2105 123.238 77.5227 122.745 77.7183 122.202C77.9139 121.659 77.9882 121.08 77.9359 120.505C77.8836 119.93 77.706 119.374 77.4155 118.876C77.1251 118.377 76.729 117.948 76.255 117.619L82.5368 86.4023L75.5998 88.6307L70.5715 118.825C70.0721 119.659 69.8956 120.646 70.0754 121.601C70.2552 122.556 70.7788 123.411 71.547 124.006C72.3152 124.6 73.2746 124.892 74.2434 124.826C75.2123 124.76 76.1232 124.34 76.8037 123.647Z" fill="#9E616A"/>
<path d="M86.0788 57.6007L81.7747 54.3501C81.7747 54.3501 77.9778 54.081 77.3054 60.9318C76.6329 67.7825 75.2521 81.1334 75.2521 81.1334L68.666 111.653L77.783 113.655L84.8372 80.719L89.069 70.9382L86.0788 57.6007Z" fill="#A7A7A7"/>
<path d="M141.98 66.4375C141.442 66.2275 140.866 66.138 140.29 66.1752C139.714 66.2124 139.154 66.3754 138.648 66.6527C138.142 66.9301 137.703 67.315 137.362 67.7804C137.021 68.2458 136.787 68.7804 136.674 69.3464L105.559 76.0416L110.369 81.5162L140.048 74.079C141.011 74.2046 141.986 73.9724 142.789 73.4264C143.593 72.8804 144.168 72.0586 144.406 71.1167C144.644 70.1748 144.529 69.1782 144.081 68.3158C143.634 67.4534 142.886 66.7851 141.98 66.4375V66.4375Z" fill="#9E616A"/>
<path d="M100.669 83.3422C99.6748 82.3811 98.927 81.194 98.4894 79.8819L92.8079 62.7898C92.3929 61.5412 92.328 60.2026 92.6204 58.9198C92.9128 57.6369 93.5512 56.4588 94.4661 55.5136C95.3811 54.5684 96.5376 53.8924 97.8098 53.559C99.0821 53.2256 100.421 53.2477 101.682 53.6227C103.105 54.0481 104.362 54.9034 105.281 56.0714C106.2 57.2394 106.735 58.6629 106.814 60.1471L107.509 73.5977L130.47 70.2337L136.438 75.7226L136.115 75.8325C134.848 76.2646 105.827 86.107 101.023 83.5912C100.894 83.5255 100.775 83.4417 100.669 83.3422Z" fill="#A7A7A7"/>
<path d="M142.888 55.5514C142.848 55.5514 142.808 55.5506 142.768 55.549C142.296 55.5319 141.835 55.401 141.425 55.1674C141.014 54.9339 140.666 54.6046 140.41 54.2076C138.493 51.3411 136.141 48.7917 133.438 46.6513C131.802 45.3428 130.092 44.1261 128.439 42.9493C124.173 39.9147 120.156 37.0566 117.926 33.1074C113.064 24.496 118.789 12.5015 126.969 7.12244C136.144 1.08948 148.212 0.143166 159.886 0.0191497C161.099 0.00631296 162.313 -6.68773e-05 163.528 5.28544e-07C184.563 0.00807002 205.553 1.92835 226.24 5.73715C233.119 7.00694 240.32 8.56247 246.106 12.3375C251.858 16.0901 255.354 21.9997 255.013 27.3932C254.515 35.2668 246.173 41.1501 238.576 42.6883C231.336 44.1532 223.814 43.1632 215.851 42.1148C214.092 41.8835 212.275 41.6442 210.477 41.4363C190.942 39.1771 154.244 46.1404 152.691 46.438L151.151 46.733L145.174 54.4279C144.906 54.7787 144.559 55.0626 144.163 55.2575C143.766 55.4523 143.33 55.5529 142.888 55.5514Z" fill="#FFE031"/>
<path d="M229.881 17.1413H147.312C146.836 17.1406 146.38 16.9508 146.044 16.6138C145.707 16.2767 145.519 15.8199 145.519 15.3436C145.519 14.8673 145.707 14.4104 146.044 14.0734C146.38 13.7363 146.836 13.5466 147.312 13.5459H229.881C230.357 13.5466 230.813 13.7363 231.15 14.0734C231.486 14.4104 231.675 14.8673 231.675 15.3436C231.675 15.8199 231.486 16.2767 231.15 16.6138C230.813 16.9508 230.357 17.1406 229.881 17.1413Z" fill="white"/>
<path d="M229.881 28.1745H147.312C147.076 28.175 146.842 28.1289 146.624 28.0389C146.406 27.9489 146.207 27.8167 146.04 27.65C145.873 27.4832 145.74 27.2851 145.649 27.0669C145.559 26.8488 145.512 26.6149 145.512 26.3787C145.511 26.1424 145.558 25.9085 145.648 25.6901C145.738 25.4718 145.87 25.2734 146.037 25.1063C146.204 24.9391 146.402 24.8066 146.62 24.7161C146.838 24.6256 147.072 24.5791 147.308 24.5791H229.881C230.357 24.5798 230.813 24.7695 231.149 25.1066C231.486 25.4436 231.675 25.9005 231.675 26.3768C231.675 26.8531 231.486 27.3099 231.149 27.647C230.813 27.984 230.357 28.1738 229.881 28.1745Z" fill="white"/>
<path d="M156.934 39.2067H147.312C146.836 39.2067 146.379 39.0173 146.042 38.6802C145.705 38.343 145.516 37.8858 145.516 37.409C145.516 36.9322 145.705 36.475 146.042 36.1379C146.379 35.8007 146.836 35.6113 147.312 35.6113H156.934C157.411 35.6113 157.868 35.8007 158.205 36.1379C158.542 36.475 158.731 36.9322 158.731 37.409C158.731 37.8858 158.542 38.343 158.205 38.6802C157.868 39.0173 157.411 39.2067 156.934 39.2067Z" fill="white"/>
</g>
<defs>
<clipPath id="clip0_448_968">
<rect width="305" height="220" fill="white"/>
</clipPath>
</defs>
</svg>
