<svg width="16" height="16" viewBox="0 0 16 16" fill="none" xmlns="http://www.w3.org/2000/svg">
<path d="M11.1999 16H4.71986C3.39986 16 2.35986 14.92 2.35986 13.64V6.4C2.35986 6.16 2.51986 6 2.75986 6C2.99986 6 3.15986 6.16 3.15986 6.4V13.64C3.15986 14.52 3.87986 15.2 4.71986 15.2H11.1999C12.0799 15.2 12.7599 14.48 12.7599 13.64V6.4C12.7599 6.16 12.9199 6 13.1599 6C13.3999 6 13.5599 6.16 13.5599 6.4V13.64C13.5599 14.92 12.4799 16 11.1999 16Z" fill="#414141"/>
<path d="M13.32 1.96H10.28C10.08 0.84 9.11996 0 7.95996 0C6.79996 0 5.83996 0.84 5.63996 1.96H2.59996C1.67996 1.96 0.959961 2.68 0.959961 3.6C0.959961 4.52 1.67996 5.2 2.59996 5.2H13.36C14.28 5.2 15 4.48 15 3.56C15 2.64 14.24 1.96 13.32 1.96ZM7.95996 0.8C8.67996 0.8 9.27996 1.28 9.43996 1.96H6.43996C6.63996 1.28 7.23996 0.8 7.95996 0.8ZM13.32 4.4H2.59996C2.15996 4.4 1.75996 4.04 1.75996 3.56C1.75996 3.12 2.11996 2.72 2.59996 2.72H13.36C13.8 2.72 14.2 3.08 14.2 3.56C14.16 4.04 13.8 4.4 13.32 4.4Z" fill="#414141"/>
<path d="M5.15977 14.0401C4.91977 14.0401 4.75977 13.8801 4.75977 13.6401V6.96006C4.75977 6.72006 4.91977 6.56006 5.15977 6.56006C5.39977 6.56006 5.55977 6.72006 5.55977 6.96006V13.6401C5.55977 13.8401 5.35977 14.0401 5.15977 14.0401Z" fill="#414141"/>
<path d="M10.7599 14.0401C10.5199 14.0401 10.3599 13.8801 10.3599 13.6401V6.96006C10.3599 6.72006 10.5199 6.56006 10.7599 6.56006C10.9999 6.56006 11.1599 6.72006 11.1599 6.96006V13.6401C11.1599 13.8401 10.9599 14.0401 10.7599 14.0401Z" fill="#414141"/>
<path d="M7.96006 14.0401C7.72006 14.0401 7.56006 13.8801 7.56006 13.6401V6.96006C7.56006 6.72006 7.72006 6.56006 7.96006 6.56006C8.20006 6.56006 8.36006 6.72006 8.36006 6.96006V13.6401C8.36006 13.8401 8.16006 14.0401 7.96006 14.0401Z" fill="#414141"/>
</svg>
