<svg width="310" height="180" viewBox="0 0 310 180" fill="none" xmlns="http://www.w3.org/2000/svg">
<g clip-path="url(#clip0_466_706)">
<path d="M52.0198 171.34C51.7714 171.351 51.5255 171.288 51.3155 171.159C51.1054 171.031 50.9413 170.843 50.8453 170.621C50.7494 170.399 50.7263 170.154 50.7792 169.919C50.8321 169.684 50.9584 169.47 51.1409 169.307L51.224 168.987C51.2131 168.962 51.2021 168.936 51.191 168.91C50.9408 168.339 50.5215 167.851 49.9858 167.509C49.4501 167.167 48.8219 166.986 48.1801 166.988C47.5382 166.991 46.9114 167.176 46.3784 167.522C45.8453 167.868 45.4298 168.358 45.184 168.932C44.2015 171.221 42.9506 173.514 42.6426 175.935C42.507 177.005 42.5642 178.089 42.8117 179.14C40.5041 174.27 39.3059 168.978 39.2982 163.621C39.2977 162.276 39.3749 160.933 39.5294 159.597C39.6571 158.502 39.8343 157.414 40.0609 156.335C41.2978 150.477 43.9533 144.986 47.8094 140.314C49.6757 139.329 51.1851 137.814 52.134 135.974C52.4778 135.312 52.7208 134.606 52.8554 133.877C52.6448 133.903 52.0615 130.801 52.2203 130.611C51.9269 130.18 51.4018 129.966 51.0814 129.546C49.4877 127.456 47.292 127.821 46.1458 130.661C43.6972 131.857 43.6735 133.84 45.1759 135.747C46.1318 136.96 46.2632 138.601 47.1019 139.9C47.0156 140.007 46.9258 140.111 46.8395 140.217C45.2622 142.18 43.8875 144.287 42.735 146.508C43.0153 144.019 42.6808 141.502 41.759 139.162C40.8249 136.982 39.0739 135.146 37.5319 133.261C35.6798 130.997 31.8819 131.985 31.5555 134.855C31.5524 134.883 31.5493 134.911 31.5463 134.938C31.7753 135.063 31.9995 135.196 32.2189 135.337C32.4945 135.515 32.708 135.769 32.8315 136.067C32.955 136.364 32.9827 136.691 32.911 137.004C32.8394 137.317 32.6716 137.602 32.4298 137.821C32.1879 138.04 31.8832 138.184 31.5557 138.232L31.5221 138.237C31.6037 139.036 31.748 139.827 31.9536 140.605C29.9754 148.006 34.2461 150.701 40.344 150.822C40.4786 150.889 40.6097 150.956 40.7444 151.019C39.5865 154.194 38.8602 157.5 38.5838 160.856C38.4273 162.836 38.4365 164.824 38.6114 166.803L38.601 166.732C38.1592 164.533 36.9462 162.548 35.1668 161.113C32.5241 159.013 28.7903 158.239 25.9392 156.551C25.6362 156.363 25.2839 156.262 24.9238 156.262C24.5637 156.261 24.2109 156.36 23.907 156.546C23.603 156.733 23.3606 157 23.2083 157.316C23.0561 157.631 23.0003 157.983 23.0476 158.328C23.0514 158.353 23.0553 158.377 23.0593 158.402C23.4843 158.569 23.8981 158.762 24.2983 158.979C24.5273 159.104 24.7515 159.237 24.9709 159.377C25.2465 159.555 25.46 159.81 25.5835 160.107C25.707 160.405 25.7347 160.732 25.663 161.045C25.5914 161.358 25.4236 161.643 25.1818 161.862C24.9399 162.081 24.6353 162.224 24.3077 162.273L24.2741 162.278C24.25 162.282 24.2293 162.285 24.2051 162.288C24.9313 163.966 25.9506 165.51 27.2182 166.853C28.4551 173.313 33.7675 173.926 39.4501 172.045H39.4535C40.077 174.666 40.9804 177.217 42.1491 179.658H51.7785C51.8131 179.554 51.8441 179.447 51.8752 179.344C50.9839 179.398 50.089 179.346 49.2107 179.19C49.9251 178.342 50.6396 177.487 51.354 176.639C51.37 176.623 51.3849 176.607 51.3989 176.589C51.7613 176.155 52.1272 175.724 52.4895 175.29L52.4897 175.29C52.5091 173.959 52.3512 172.632 52.0202 171.34L52.0198 171.34Z" fill="#F2F2F2"/>
<path d="M253.147 171.34C253.395 171.351 253.641 171.288 253.851 171.159C254.062 171.031 254.226 170.843 254.322 170.621C254.417 170.399 254.441 170.154 254.388 169.919C254.335 169.684 254.209 169.47 254.026 169.307L253.943 168.987C253.954 168.962 253.965 168.936 253.976 168.91C254.226 168.339 254.645 167.851 255.181 167.509C255.717 167.167 256.345 166.986 256.987 166.988C257.629 166.991 258.255 167.176 258.789 167.522C259.322 167.868 259.737 168.358 259.983 168.932C260.965 171.221 262.216 173.514 262.524 175.935C262.66 177.005 262.603 178.089 262.355 179.14C264.663 174.27 265.861 168.978 265.869 163.621C265.869 162.276 265.792 160.933 265.637 159.597C265.51 158.502 265.333 157.414 265.106 156.335C263.869 150.477 261.214 144.986 257.358 140.314C255.491 139.329 253.982 137.814 253.033 135.974C252.689 135.312 252.446 134.606 252.312 133.877C252.522 133.903 253.105 130.801 252.947 130.611C253.24 130.18 253.765 129.966 254.086 129.546C255.679 127.456 257.875 127.821 259.021 130.661C261.47 131.857 261.493 133.84 259.991 135.747C259.035 136.96 258.904 138.601 258.065 139.9C258.151 140.007 258.241 140.111 258.327 140.217C259.905 142.18 261.279 144.287 262.432 146.508C262.152 144.019 262.486 141.502 263.408 139.162C264.342 136.982 266.093 135.146 267.635 133.261C269.487 130.997 273.285 131.985 273.611 134.855C273.615 134.883 273.618 134.911 273.621 134.938C273.392 135.063 273.167 135.196 272.948 135.337C272.672 135.515 272.459 135.769 272.335 136.067C272.212 136.364 272.184 136.691 272.256 137.004C272.328 137.317 272.495 137.602 272.737 137.821C272.979 138.04 273.284 138.184 273.611 138.232L273.645 138.237C273.563 139.036 273.419 139.827 273.213 140.605C275.191 148.006 270.921 150.701 264.823 150.822C264.688 150.889 264.557 150.956 264.423 151.019C265.58 154.194 266.307 157.5 266.583 160.856C266.74 162.836 266.73 164.824 266.556 166.803L266.566 166.732C267.008 164.533 268.221 162.548 270 161.113C272.643 159.013 276.377 158.239 279.228 156.551C279.531 156.363 279.883 156.262 280.243 156.262C280.603 156.261 280.956 156.36 281.26 156.546C281.564 156.733 281.806 157 281.959 157.316C282.111 157.631 282.167 157.983 282.119 158.328C282.116 158.353 282.112 158.377 282.108 158.402C281.683 158.569 281.269 158.762 280.869 158.979C280.64 159.104 280.415 159.237 280.196 159.377C279.92 159.555 279.707 159.81 279.583 160.107C279.46 160.405 279.432 160.732 279.504 161.045C279.576 161.358 279.743 161.643 279.985 161.862C280.227 162.081 280.532 162.224 280.859 162.273L280.893 162.278C280.917 162.282 280.938 162.285 280.962 162.288C280.236 163.966 279.216 165.51 277.949 166.853C276.712 173.313 271.399 173.926 265.717 172.045H265.713C265.09 174.666 264.187 177.217 263.018 179.658H253.388C253.354 179.554 253.323 179.447 253.292 179.344C254.183 179.398 255.078 179.346 255.956 179.19C255.242 178.342 254.527 177.487 253.813 176.639C253.797 176.623 253.782 176.607 253.768 176.589C253.406 176.155 253.04 175.724 252.677 175.29L252.677 175.29C252.658 173.959 252.816 172.632 253.147 171.34L253.147 171.34Z" fill="#F2F2F2"/>
<path d="M63.0957 179.449H78.6346C81.2922 170.792 78.6488 150.333 82.1518 141.971C88.8724 125.937 97.4582 109.019 113.483 101.191C120.325 97.8478 127.786 96.5421 135.405 96.6132C145.929 96.7097 156.75 99.443 166.657 103.065C170.709 104.544 174.725 106.169 178.724 107.831C193.793 114.095 208.698 120.918 224.903 122.762C245.408 125.094 269.517 116.218 275.117 97.1009C279.392 82.4644 271.694 67.269 263.62 54.1972C255.547 41.1255 246.523 27.1392 247.997 12.0048C248.002 11.954 248.008 11.8981 248.018 11.8473C248.573 6.41131 251.928 2.50461 256.614 0H236.209C235.94 14.1183 244.383 26.5804 251.981 38.885C260.054 51.9517 267.752 67.1522 263.478 81.7887C257.877 100.901 211.502 78.4974 190.997 76.1604C185.206 75.5051 194.404 77.8369 188.883 76.1604C180.223 73.5339 179.263 97.6242 170.836 94.0883C165.59 91.8834 160.338 89.6937 155.017 87.748C152.814 86.9402 150.563 86.1832 148.286 85.4821C148.281 85.4821 148.281 85.4821 148.275 85.4771C132.985 80.793 116.262 78.9691 102.134 85.7412C102.039 85.7869 101.939 85.8327 101.844 85.8784C85.8186 93.7022 77.2328 110.62 70.5121 126.653C64.9591 139.908 65.8326 165.468 63.0957 179.449Z" fill="#F2F2F2"/>
<path d="M149.547 179.006C188.963 179.006 220.916 148.094 220.916 109.962C220.916 71.83 188.963 40.918 149.547 40.918C110.132 40.918 78.1787 71.83 78.1787 109.962C78.1787 148.094 110.132 179.006 149.547 179.006Z" fill="white"/>
<path d="M149.344 179.449C78.7319 181.019 77.1836 148.564 77.1836 109.962C77.1836 71.3602 109.646 39.9551 149.548 39.9551C189.45 39.9551 221.912 71.3602 221.912 109.962C221.912 148.564 189.246 179.449 149.344 179.449ZM149.548 41.8814C110.744 41.8814 79.8282 72.4275 79.1747 109.962C78.5669 144.873 116.903 188.438 149.548 178.043C167.054 159.391 216.549 139.302 219.921 109.962C224.209 72.6521 188.352 41.8814 149.548 41.8814V41.8814Z" fill="#414141"/>
<path d="M139.811 145.896C138.579 145.896 137.363 145.618 136.261 145.085C135.159 144.552 134.2 143.777 133.461 142.823L113.99 117.708C113.364 116.901 112.909 115.983 112.649 115.006C112.39 114.029 112.333 113.011 112.48 112.013C112.627 111.014 112.976 110.053 113.508 109.185C114.039 108.317 114.742 107.558 115.576 106.953C116.41 106.348 117.36 105.908 118.37 105.657C119.38 105.407 120.431 105.352 121.464 105.495C122.496 105.638 123.489 105.976 124.386 106.49C125.283 107.005 126.067 107.685 126.692 108.492L139.431 124.922L172.147 77.4466C173.316 75.7529 175.131 74.5774 177.195 74.1786C179.26 73.7797 181.403 74.1902 183.154 75.3197C184.905 76.4492 186.121 78.2053 186.535 80.202C186.948 82.1986 186.525 84.2723 185.358 85.9671L146.417 142.476C145.713 143.498 144.765 144.342 143.654 144.936C142.543 145.531 141.301 145.859 140.032 145.894C139.958 145.895 139.885 145.896 139.811 145.896Z" fill="#F2F2F2"/>
<path d="M195.122 174.628H190.943L188.955 159.034L195.123 159.034L195.122 174.628Z" fill="#FFB6B6"/>
<path d="M195.27 178.845L182.419 178.845V178.688C182.419 177.404 182.946 176.174 183.884 175.266C184.822 174.359 186.094 173.849 187.421 173.849H187.421L189.768 172.126L194.148 173.849L195.27 173.849L195.27 178.845Z" fill="#2F2E41"/>
<path d="M176.954 155.301L173.094 156.85L165.083 143.182L170.78 140.897L176.954 155.301Z" fill="#FFB6B6"/>
<path d="M178.76 159.143L166.889 163.905L166.827 163.76C166.319 162.574 166.318 161.242 166.825 160.056C167.332 158.871 168.306 157.928 169.531 157.436L169.531 157.436L171.017 154.975L175.745 154.944L176.781 154.528L178.76 159.143Z" fill="#2F2E41"/>
<path d="M199.9 85.9209L170.243 88.9185L166.276 101.845L152.537 123.204C152.537 123.204 162.124 138.814 161.224 138.644C160.323 138.474 162.123 142.729 163.383 142.482C164.643 142.235 165.953 145.009 165.082 145.502C164.211 145.996 167.706 150.167 167.706 150.167L173.049 145.528C174.185 137.236 172.812 129.856 167.921 123.755L183.226 107.77L186.128 106.605L188.432 165.922L196.953 166.058C199.304 154.357 200.486 143.825 198.648 136.312C198.648 136.312 198.912 113.743 199.919 113.99C200.927 114.237 200.073 111.296 200.073 111.296C200.073 111.296 199.19 108.792 200.275 107.753C201.359 106.715 200.682 100.605 200.682 100.605C202.474 94.8227 201.934 90.0485 199.9 85.9209Z" fill="#2F2E41"/>
<path d="M177.098 38.219L185.296 36.1637L189.123 31.0571L198.212 32.1381L200.147 39.1034L206.618 42.7369C206.618 42.7369 203.041 79.3316 203.892 81.341C204.743 83.3503 207.793 83.1845 205.188 85.7747C202.583 88.365 202.238 87.3216 202.842 90.1416C203.447 92.9617 207.853 95.9461 202.842 95.9165C197.831 95.8868 167.595 95.469 168.459 92.1259C169.322 88.7828 169.309 89.6318 170.612 87.5358C171.914 85.4398 172.791 86.611 172.353 83.5181C171.914 80.4252 172.346 78.3358 172.346 76.6642C172.346 74.9927 173.793 59.8033 173.793 59.8033L177.098 38.219Z" fill="#E6E6E6"/>
<path d="M193.645 30.1131C198.965 30.1131 203.277 25.9414 203.277 20.7953C203.277 15.6493 198.965 11.4775 193.645 11.4775C188.326 11.4775 184.014 15.6493 184.014 20.7953C184.014 25.9414 188.326 30.1131 193.645 30.1131Z" fill="#FFB6B6"/>
<path d="M183.553 15.156C184.398 15.8172 184.205 19.0326 185.147 18.5085C186.09 17.9844 186.286 17.0459 187.371 17.036C188.255 17.0833 189.09 17.4486 189.71 18.0603C189.826 18.1613 189.936 18.2672 190.043 18.3719C190.14 18.3388 190.236 18.3088 190.338 18.2842C191.099 18.1044 191.902 18.2138 192.582 18.5899C191.954 18.6333 191.356 18.8666 190.873 19.2568C191.08 19.4814 191.29 19.7072 191.511 19.9159C193.356 21.6647 197.138 19.8023 199.681 19.3821C197.563 21.6194 197.981 22.8684 198.507 25.8589L198.51 26.0223C198.618 25.3326 200.901 25.367 200.525 26.2821C200.052 27.1861 199.46 28.0272 198.765 28.7846C201.876 26.6997 204.387 23.8258 204.942 20.3543C205.056 19.6244 205.278 18.8797 205.063 18.168C204.972 17.8082 204.76 17.4877 204.461 17.2568C204.161 17.0258 203.791 16.8973 203.408 16.8913C203.755 15.8264 203.796 14.6906 203.529 13.6046C203.262 12.5185 202.695 11.5229 201.889 10.7235C201.084 9.92417 200.069 9.35093 198.954 9.06478C197.838 8.77862 196.664 8.79024 195.554 9.0984C194.543 9.44628 193.556 9.85837 192.6 10.332C191.635 10.8074 190.544 10.9863 189.471 10.8447C188.803 10.7112 188.126 10.3765 187.471 10.566C186.712 10.7862 186.386 11.5616 186.082 12.3101C186.653 12.5118 187.149 12.8737 187.506 13.3494C186.916 13.1387 186.272 13.1133 185.666 13.2771C185.655 13.279 185.644 13.2818 185.633 13.2857C184.946 14.4769 184.906 14.769 183.553 15.156Z" fill="#2F2E41"/>
<path d="M186.729 33.6675C181.795 33.2832 177.291 36.9331 175.237 41.2894C173.184 45.6457 173.049 50.5876 172.949 55.3746L172.639 70.2548C172.594 72.4567 172.548 74.6591 172.434 76.8587C172.376 78.9991 172.098 81.1286 171.604 83.2157C170.598 87.0455 168.385 90.4583 166.205 93.7999C171.787 95.4321 177.464 96.7437 183.205 97.7277C186.073 88.7552 188.973 79.5248 188.268 70.158C187.895 65.2015 186.517 60.3622 185.993 55.4185C185.251 48.4167 186.235 41.3634 187.216 34.3893" fill="#414141"/>
<path d="M198.704 34.5044C203.59 35.2645 207.07 39.8448 207.996 44.5483C208.921 49.2518 207.839 54.0832 206.761 58.7562C205.643 63.5981 204.526 68.44 203.409 73.2819C202.913 75.4314 202.417 77.5812 201.987 79.744C201.57 81.845 203.318 84.5397 203.338 86.6791C203.375 90.6305 202.582 93.8848 203.88 97.6316C198.057 97.9349 192.221 97.9048 186.402 97.5416C185.819 88.1669 185.267 78.5343 188.251 69.5974C189.83 64.8683 192.357 60.4841 194.079 55.8021C196.518 49.171 197.294 42.0936 198.053 35.0935" fill="#414141"/>
<path d="M201.961 102.056C201.598 101.444 201.496 100.719 201.677 100.036C201.858 99.3526 202.308 98.7645 202.93 98.3969C203.058 98.3241 203.192 98.2616 203.33 98.2102L202.707 77.6855L209.457 76.0234L206.883 99.9355C207.059 100.507 207.035 101.119 206.813 101.676C206.592 102.232 206.187 102.703 205.66 103.013C205.359 103.187 205.025 103.302 204.678 103.351C204.331 103.4 203.978 103.382 203.637 103.299C203.297 103.216 202.977 103.069 202.696 102.866C202.415 102.663 202.178 102.409 201.998 102.117C201.985 102.097 201.973 102.076 201.961 102.056Z" fill="#FFB6B6"/>
<path d="M201.468 42.7041C201.468 42.7041 206.18 38.8495 210.144 46.5567C214.109 54.2639 211.893 71.8711 211.335 72.8108C210.777 73.7505 210.437 72.4415 210.742 74.9463C210.991 76.9835 209.513 76.7287 210.043 77.1634C211.441 78.3097 207.526 78.4403 209.537 79.4503C211.547 80.4604 202.548 80.6495 202.548 80.6495C202.548 80.6495 201.46 79.8975 202.216 77.0617C202.641 75.469 203.704 74.8863 202.57 74.1493C201.436 73.4123 203.741 71.1337 203.743 70.6338C203.744 70.1338 200.148 59.1991 200.148 59.1991L201.468 42.7041Z" fill="#414141"/>
<path d="M162.48 137.65C161.248 137.65 160.032 137.373 158.93 136.839C157.828 136.306 156.869 135.532 156.13 134.578L136.659 109.462C136.033 108.655 135.577 107.737 135.318 106.76C135.059 105.783 135.002 104.766 135.149 103.767C135.296 102.768 135.645 101.807 136.177 100.939C136.708 100.071 137.411 99.3127 138.245 98.7074C139.079 98.1022 140.029 97.6618 141.039 97.4116C142.049 97.1613 143.1 97.1061 144.133 97.2491C145.165 97.392 146.158 97.7303 147.055 98.2446C147.952 98.759 148.736 99.4393 149.361 100.247L162.099 116.676L194.816 69.2008C195.394 68.3616 196.138 67.6408 197.004 67.0796C197.87 66.5184 198.842 66.1277 199.865 65.9299C200.887 65.7321 201.94 65.731 202.962 65.9268C203.985 66.1225 204.958 66.5112 205.825 67.0707C206.693 67.6301 207.438 68.3494 208.018 69.1875C208.598 70.0255 209.002 70.9659 209.206 71.9549C209.411 72.9439 209.412 73.9622 209.21 74.9516C209.007 75.941 208.606 76.8822 208.027 77.7214L169.086 134.23C168.382 135.252 167.434 136.096 166.323 136.69C165.212 137.285 163.97 137.613 162.701 137.648C162.627 137.649 162.554 137.65 162.48 137.65Z" fill="#FFE031"/>
<path d="M177.322 98.4904C177.719 97.8989 177.862 97.1808 177.721 96.4888C177.579 95.7969 177.164 95.1857 176.564 94.7854C176.44 94.7058 176.31 94.6363 176.175 94.5776L177.97 74.1176L171.325 72.0972L172.529 96.1103C172.321 96.6716 172.31 97.2838 172.499 97.8515C172.688 98.4192 173.066 98.9104 173.574 99.2484C173.865 99.4381 174.191 99.5705 174.535 99.6381C174.879 99.7056 175.233 99.707 175.577 99.6421C175.922 99.5772 176.249 99.4474 176.542 99.2599C176.834 99.0725 177.086 98.8312 177.282 98.5498C177.296 98.5302 177.309 98.5104 177.322 98.4904Z" fill="#FFB6B6"/>
<path d="M181.211 39.2979C181.211 39.2979 176.727 35.1973 172.328 42.6807C167.929 50.1642 169.135 67.8629 169.639 68.831C170.142 69.7991 170.557 68.5103 170.109 70.9949C169.744 73.0157 171.235 72.8403 170.68 73.246C169.219 74.3159 173.12 74.6555 171.055 75.5565C168.99 76.4575 177.964 77.1275 177.964 77.1275C177.964 77.1275 179.094 76.4348 178.501 73.563C178.168 71.95 177.14 71.3114 178.314 70.6361C179.488 69.9608 177.317 67.5625 177.344 67.0633C177.371 66.564 181.586 55.8382 181.586 55.8382L181.211 39.2979Z" fill="#414141"/>
</g>
<defs>
<clipPath id="clip0_466_706">
<rect width="310" height="180" fill="white"/>
</clipPath>
</defs>
</svg>
