<svg width="14" height="14" viewBox="0 0 14 14" fill="none" xmlns="http://www.w3.org/2000/svg">
<path d="M1.00011 13.4998C0.929549 13.5002 0.859701 13.4857 0.795152 13.4572C0.730604 13.4287 0.672817 13.3869 0.62559 13.3344C0.578363 13.282 0.542766 13.2202 0.521138 13.153C0.499511 13.0859 0.492343 13.0149 0.500106 12.9448L0.885106 9.44476C0.898811 9.3329 0.949907 9.22894 1.03011 9.14976L9.21011 0.96976C9.35872 0.820847 9.53525 0.702706 9.72958 0.622099C9.9239 0.541491 10.1322 0.5 10.3426 0.5C10.553 0.5 10.7613 0.541491 10.9556 0.622099C11.15 0.702706 11.3265 0.820847 11.4751 0.96976L13.0301 2.52476C13.179 2.67338 13.2972 2.8499 13.3778 3.04423C13.4584 3.23856 13.4999 3.44688 13.4999 3.65726C13.4999 3.86764 13.4584 4.07596 13.3778 4.27029C13.2972 4.46462 13.179 4.64114 13.0301 4.78976L4.85511 12.9648C4.77592 13.045 4.67197 13.0961 4.56011 13.1098L1.06011 13.4948L1.00011 13.4998ZM1.86511 9.72476L1.56511 12.4348L4.27511 12.1348L12.3251 4.08476C12.381 4.02902 12.4254 3.96278 12.4557 3.88985C12.486 3.81692 12.5016 3.73873 12.5016 3.65976C12.5016 3.58079 12.486 3.5026 12.4557 3.42967C12.4254 3.35674 12.381 3.2905 12.3251 3.23476L10.7651 1.67476C10.7094 1.61882 10.6431 1.57444 10.5702 1.54416C10.4973 1.51387 10.4191 1.49829 10.3401 1.49829C10.2611 1.49829 10.1829 1.51387 10.11 1.54416C10.0371 1.57444 9.97085 1.61882 9.91511 1.67476L1.86511 9.72476Z" fill="#414141"/>
<path d="M11.4996 6.10484C11.4338 6.10522 11.3686 6.09261 11.3077 6.06772C11.2468 6.04284 11.1913 6.00618 11.1446 5.95984L8.03962 2.84484C7.993 2.79822 7.95602 2.74287 7.93079 2.68196C7.90556 2.62105 7.89258 2.55577 7.89258 2.48984C7.89258 2.42391 7.90556 2.35863 7.93079 2.29771C7.95602 2.2368 7.993 2.18146 8.03962 2.13484C8.08624 2.08822 8.14159 2.05124 8.2025 2.02601C8.26341 2.00078 8.32869 1.98779 8.39462 1.98779C8.46055 1.98779 8.52584 2.00078 8.58675 2.02601C8.64766 2.05124 8.703 2.08822 8.74962 2.13484L11.8646 5.24984C11.9115 5.29632 11.9487 5.35162 11.9741 5.41255C11.9995 5.47348 12.0125 5.53883 12.0125 5.60484C12.0125 5.67084 11.9995 5.7362 11.9741 5.79713C11.9487 5.85806 11.9115 5.91336 11.8646 5.95984C11.8167 6.00739 11.7597 6.04476 11.697 6.06968C11.6342 6.0946 11.5671 6.10656 11.4996 6.10484Z" fill="#414141"/>
<path d="M8.04301 5.25142L4.15039 9.14404L4.8575 9.85115L8.75012 5.95853L8.04301 5.25142Z" fill="#414141"/>
</svg>
