<svg width="16" height="12" viewBox="0 0 16 12" fill="none" xmlns="http://www.w3.org/2000/svg">
<path d="M14 0H2C0.8955 0 0 0.8955 0 2V10C0 11.1045 0.8955 12 2 12H14C15.1045 12 16 11.1045 16 10V2C16 0.8955 15.1045 0 14 0ZM10.708 5.33691L14.9414 1.70897C14.9707 1.80272 15 1.89647 15 2V10C15 10.0693 14.9736 10.1309 14.96 10.1963L10.708 5.33691ZM14 1C14.0664 1 14.125 1.02541 14.1875 1.03809L8 6.34181L1.8125 1.03809C1.875 1.02541 1.93359 1 2 1H14ZM1.03956 10.1953C1.02587 10.1299 1 10.0693 1 10V2C1 1.89647 1.02978 1.80272 1.05909 1.70897L5.29103 5.33594L1.03956 10.1953ZM2 11C1.89894 11 1.80712 10.9707 1.71484 10.9424L6.05078 5.98728L7.67481 7.37887C7.76806 7.45997 7.88428 7.5 8 7.5C8.11572 7.5 8.23194 7.45997 8.32519 7.37891L9.94922 5.98731L14.2852 10.9424C14.1934 10.9707 14.1016 11 14 11H2Z" fill="#414141"/>
</svg>
