<svg width="245" height="177" viewBox="0 0 245 177" fill="none" xmlns="http://www.w3.org/2000/svg">
<g clip-path="url(#clip0_448_1195)">
<path d="M214.923 86.2153H212.742V172.404H214.923V86.2153Z" fill="#414141"/>
<path d="M235.05 97.1993C235.189 127.337 213.996 151.868 213.996 151.868C213.996 151.868 192.578 127.534 192.439 97.3958C192.3 67.2576 213.493 42.7275 213.493 42.7275C213.493 42.7275 234.911 67.0611 235.05 97.1993Z" fill="#A7A7A7"/>
<path d="M171.316 126.769H170.194V171.098H171.316V126.769Z" fill="#3F3D56"/>
<path d="M181.668 132.418C181.74 147.919 170.84 160.535 170.84 160.535C170.84 160.535 159.824 148.02 159.752 132.519C159.681 117.018 170.581 104.402 170.581 104.402C170.581 104.402 181.597 116.917 181.668 132.418Z" fill="#A7A7A7"/>
<path d="M193.425 177C210.209 177 223.816 174.913 223.816 172.339C223.816 169.765 210.209 167.679 193.425 167.679C176.641 167.679 163.035 169.765 163.035 172.339C163.035 174.913 176.641 177 193.425 177Z" fill="#414141"/>
<path d="M195.932 63.7145C193.357 59.3619 188.263 59.159 188.263 59.159C188.263 59.159 183.3 58.5239 180.116 65.1531C177.148 71.3321 173.052 77.298 179.456 78.7445L180.613 75.142L181.329 79.0127C182.241 79.0783 183.156 79.0939 184.07 79.0595C190.928 78.838 197.46 79.1243 197.25 76.6619C196.971 73.3884 198.409 67.9027 195.932 63.7145Z" fill="#2F2E41"/>
<path d="M186.66 71.9117C186.66 71.9117 189.988 76.5725 187.991 80.3454C185.995 84.1184 192.649 88.1133 192.649 88.1133L197.53 77.4602C197.53 77.4602 191.762 73.6873 193.315 70.1362L186.66 71.9117Z" fill="#FBBEBE"/>
<path d="M188.878 73.909C192.063 73.909 194.645 71.3255 194.645 68.1386C194.645 64.9517 192.063 62.3682 188.878 62.3682C185.693 62.3682 183.11 64.9517 183.11 68.1386C183.11 71.3255 185.693 73.909 188.878 73.909Z" fill="#FBBEBE"/>
<path d="M168.918 74.8093L173.738 68.5875C173.738 68.5875 175.435 62.0658 177.893 62.3964C180.351 62.7271 176.922 70.2175 176.922 70.2175L172.133 77.1044L168.918 74.8093Z" fill="#FBBEBE"/>
<path d="M193.314 157.58L194.867 165.792L198.195 166.68L197.307 156.915L193.314 157.58Z" fill="#FBBEBE"/>
<path d="M226.811 148.703L232.8 156.915L235.24 158.024L237.236 154.695L231.247 146.927L226.811 148.703Z" fill="#FBBEBE"/>
<path d="M191.984 84.5621L188.284 79.6885C188.284 79.6885 181.114 81.0111 180.449 81.6769C179.784 82.3427 182.224 94.5494 182.224 94.5494C182.224 94.5494 182.667 97.8785 184.664 99.654L186.66 100.986L203.075 97.6565L203.692 90.349C203.917 87.6873 203.584 85.008 202.714 82.4828C201.843 79.9575 200.455 77.642 198.639 75.6846L195.783 76.0752L191.984 84.5621Z" fill="#414141"/>
<path d="M181.336 82.1208L180.227 81.6769L175.125 81.233C175.125 81.233 173.35 80.7892 173.794 79.9014C174.238 79.0136 174.681 78.7917 173.794 78.5698C172.907 78.3478 172.685 78.1259 172.907 77.4601C173.129 76.7943 174.459 75.4626 174.459 75.4626L170.688 72.3555C170.688 72.3555 170.484 72.4999 170.154 72.7671C168.282 74.2838 162.358 79.7559 166.696 85.228C171.798 91.6642 177.787 95.4372 182.667 94.1055L181.336 82.1208Z" fill="#414141"/>
<path d="M186.216 99.8761V102.983C186.216 102.983 184.219 106.756 184.885 110.307C185.55 113.858 185.772 115.634 185.772 115.634C185.845 118.654 186.368 121.646 187.325 124.511C188.878 128.95 183.776 158.024 190.209 158.468C196.642 158.912 200.191 159.356 202.187 157.136C204.184 154.917 198.86 116.744 198.86 116.744C198.86 116.744 217.05 154.695 220.821 153.142C224.592 151.588 234.13 148.037 233.021 146.04C231.912 144.042 203.962 99.6542 203.962 99.6542L203.075 97.6567L186.216 99.8761Z" fill="#2F2E41"/>
<path d="M196.864 164.238C196.864 164.238 193.315 164.016 193.315 165.126C193.315 166.236 191.54 170.009 191.54 170.009C191.54 170.009 190.209 174.448 193.759 174.004C197.308 173.56 199.526 169.565 199.526 169.565L198.639 165.348L196.864 164.238Z" fill="#414141"/>
<path d="M233.909 156.471C233.909 156.471 230.803 154.473 231.025 155.805C231.247 157.136 231.469 160.687 233.021 160.909C234.574 161.131 239.233 162.463 239.454 162.907C239.676 163.351 245 165.126 245 162.241C245 159.356 241.673 157.136 241.673 157.136L237.902 154.251C237.902 154.251 235.462 154.029 235.018 155.583C234.574 157.136 233.909 156.471 233.909 156.471Z" fill="#414141"/>
<path d="M188.886 62.8661C190.92 62.8661 192.569 61.2163 192.569 59.1811C192.569 57.1459 190.92 55.4961 188.886 55.4961C186.852 55.4961 185.203 57.1459 185.203 59.1811C185.203 61.2163 186.852 62.8661 188.886 62.8661Z" fill="#2F2E41"/>
<path d="M184.815 58.2114C184.816 57.3013 185.152 56.4234 185.761 55.7468C186.369 55.0703 187.206 54.6429 188.111 54.5471C187.982 54.5334 187.853 54.5265 187.723 54.5264C186.746 54.5264 185.81 54.9146 185.119 55.6057C184.428 56.2968 184.04 57.2341 184.04 58.2114C184.04 59.1887 184.428 60.126 185.119 60.8171C185.81 61.5082 186.746 61.8964 187.723 61.8964C187.853 61.8963 187.982 61.8894 188.111 61.8757C187.206 61.7799 186.369 61.3525 185.761 60.676C185.152 59.9994 184.816 59.1215 184.815 58.2114Z" fill="#2F2E41"/>
<path d="M194.793 63.2952L189.761 60.6577L182.811 61.7368L181.373 68.0905L184.952 67.9526L185.952 65.6185V67.9142L187.604 67.8508L188.562 64.1344L189.162 68.0905L195.033 67.9706L194.793 63.2952Z" fill="#2F2E41"/>
<path d="M194.492 100.39L186.731 100.6C186.731 100.6 180.108 101.89 180.48 99.2153C180.851 96.541 187.312 97.4763 187.312 97.4763L194.384 96.397L194.492 100.39Z" fill="#FBBEBE"/>
<path d="M200.633 75.3082C201.023 75.2491 201.421 75.3313 201.756 75.54C202.091 75.7486 202.341 76.07 202.46 76.4463C203.979 81.2367 208.66 97.2672 204.009 99.4665C198.532 102.057 194.534 101.943 194.534 101.943L192.395 96.6724L194.342 94.8435L196.422 81.4661L197.418 75.7954L200.633 75.3082Z" fill="#414141"/>
<path opacity="0.4" d="M199.193 84.2295L198.306 93.1071L190.542 96.4362L199.193 94.4387V84.2295Z" fill="black"/>
<path d="M157.322 54.9219C159.823 55.5848 161.986 57.1573 163.39 59.3317L164.115 60.456L164.152 60.5025L176.881 64.2292C177.114 64.2975 177.312 64.4547 177.43 64.667C177.549 64.8793 177.58 65.1297 177.516 65.3644L176.527 68.9898C176.495 69.1079 176.44 69.2184 176.365 69.3151C176.29 69.4118 176.196 69.4926 176.09 69.553C175.984 69.6134 175.866 69.6522 175.745 69.667C175.623 69.6819 175.5 69.6726 175.382 69.6396L162.65 66.0788L162.65 66.0792L161.371 66.5629C159.016 67.4536 156.433 67.5414 154.023 66.8127L157.322 54.9219Z" fill="#3F3D56"/>
<path d="M170.728 65.4359C170.848 65.0236 170.32 64.5061 169.547 64.2799C168.775 64.0538 168.051 64.2046 167.93 64.6168C167.81 65.0291 168.338 65.5466 169.111 65.7728C169.883 65.999 170.607 65.8481 170.728 65.4359Z" fill="#414141"/>
<path d="M170.077 65.8159C170.373 65.8159 170.612 65.5766 170.612 65.2813C170.612 64.986 170.373 64.7466 170.077 64.7466C169.782 64.7466 169.543 64.986 169.543 65.2813C169.543 65.5766 169.782 65.8159 170.077 65.8159Z" fill="#3F3D56"/>
<path d="M158.386 61.7888C159.448 58.5135 159.108 55.4691 157.628 54.9888C156.148 54.5085 154.087 56.7743 153.026 60.0496C151.964 63.3249 152.304 66.3693 153.784 66.8496C155.264 67.3298 157.325 65.064 158.386 61.7888Z" fill="#FFE031"/>
<path opacity="0.4" d="M157.991 61.673C159.014 58.5171 158.735 55.5759 157.389 54.936C157.47 54.9461 157.55 54.9638 157.628 54.9889C159.108 55.4691 159.448 58.5136 158.386 61.7889C157.325 65.0641 155.264 67.3299 153.784 66.8497C153.73 66.8321 153.678 66.811 153.627 66.7867C155.083 66.9722 156.985 64.7758 157.991 61.673Z" fill="black"/>
<path d="M157.49 54.9333L128.599 32.5119C123.491 28.5184 118.588 24.2675 113.911 19.7758C105.676 11.9218 94.4962 5.64248 81.48 2.2993C49.8562 -5.82316 24.8037 8.57895 13.4091 29.7262C-4.00305 62.0414 -17.3472 114.48 59.8582 86.5671C76.7429 80.4625 93.8341 79.8136 106.793 76.5981L153.719 66.9181L157.49 54.9333Z" fill="#FFE031"/>
<path d="M70.7559 17.2038C71.6135 17.2038 72.3087 16.5083 72.3087 15.6503C72.3087 14.7922 71.6135 14.0967 70.7559 14.0967C69.8983 14.0967 69.2031 14.7922 69.2031 15.6503C69.2031 16.5083 69.8983 17.2038 70.7559 17.2038Z" fill="#F2F2F2"/>
<path d="M100.92 19.2408H100.515V18.8364H100.436V19.2408H100.032V19.3198H100.436V19.7242H100.515V19.3198H100.92V19.2408Z" fill="#F2F2F2"/>
<path d="M141.513 52.9757H141.109V52.5713H141.03V52.9757H140.626V53.0547H141.03V53.459H141.109V53.0547H141.513V52.9757Z" fill="#F2F2F2"/>
<path d="M138.63 63.4068H138.226V63.0024H138.147V63.4068H137.743V63.4858H138.147V63.8902H138.226V63.4858H138.63V63.4068Z" fill="#F2F2F2"/>
<path d="M14.6295 72.2848H14.2253V71.8804H14.1464V72.2848H13.7422V72.3638H14.1464V72.7681H14.2253V72.3638H14.6295V72.2848Z" fill="#F2F2F2"/>
<path d="M32.3756 23.9019H31.9714V23.4976H31.8924V23.9019H31.4883V23.9809H31.8924V24.3853H31.9714V23.9809H32.3756V23.9019Z" fill="#F2F2F2"/>
<path d="M101.363 65.1827H100.959V64.7783H100.88V65.1827H100.476V65.2617H100.88V65.6661H100.959V65.2617H101.363V65.1827Z" fill="#F2F2F2"/>
<path d="M58.9947 9.69783H58.5906V9.29346H58.5116V9.69783H58.1074V9.77684H58.5116V10.1812H58.5906V9.77684H58.9947V9.69783Z" fill="#F2F2F2"/>
<path d="M59.15 41.6519L58.6465 41.7295C58.804 42.7371 58.9282 43.7669 59.0192 44.7856L59.5271 44.7412C59.4362 43.7092 59.3097 42.6706 59.15 41.6519Z" fill="#E6E6E6"/>
<path d="M57.7722 35.584L57.2842 35.7327C57.5792 36.7092 57.8432 37.7102 58.0672 38.7067L58.5663 38.5935C58.3379 37.5859 58.0695 36.5738 57.7722 35.584Z" fill="#E6E6E6"/>
<path d="M55.574 29.7651L55.1104 29.9782C55.5363 30.9081 55.9355 31.8625 56.2971 32.8168L56.774 32.637C56.408 31.6716 56.0065 30.7039 55.574 29.7651Z" fill="#E6E6E6"/>
<path d="M52.6012 24.3096L52.1709 24.5826C52.7188 25.4437 53.2445 26.3359 53.7326 27.2303L54.1806 26.9862C53.6882 26.0807 53.1558 25.1796 52.6012 24.3096Z" fill="#E6E6E6"/>
<path d="M48.9058 19.3096L48.5176 19.6403C49.1786 20.417 49.8219 21.2293 50.4297 22.0505L50.8379 21.7465C50.2256 20.9164 49.5757 20.0952 48.9058 19.3096Z" fill="#E6E6E6"/>
<path d="M44.562 14.8574L44.2227 15.2369C44.9857 15.9183 45.7333 16.6352 46.4454 17.3653L46.8114 17.008C46.0904 16.269 45.334 15.5454 44.562 14.8574Z" fill="#E6E6E6"/>
<path d="M39.6553 11.0356L39.3691 11.4573C40.2165 12.0277 41.055 12.6358 41.8603 13.2639L42.1752 12.8622C41.3589 12.2275 40.5115 11.6127 39.6553 11.0356Z" fill="#E6E6E6"/>
<path d="M35.1904 8.38086V8.9579C35.7206 9.23533 36.2463 9.52607 36.761 9.82347L37.0161 9.3818C36.4171 9.03557 35.8086 8.70192 35.1904 8.38086Z" fill="#E6E6E6"/>
<path d="M59.1846 47.9341L59.6945 47.9248C59.7039 48.4399 59.7046 48.9578 59.6966 49.4642L59.1867 49.4562C59.1945 48.9556 59.1938 48.4435 59.1846 47.9341Z" fill="#E6E6E6"/>
<path d="M29.2028 85.374L28.6992 85.4517C28.8567 86.4593 28.9809 87.4891 29.0719 88.5078L29.5799 88.4634C29.4889 87.4314 29.3625 86.3927 29.2028 85.374Z" fill="#E6E6E6"/>
<path d="M27.8259 79.3062L27.3379 79.4549C27.6329 80.4314 27.8969 81.4323 28.1209 82.4288L28.62 82.3156C28.3916 81.308 28.1232 80.296 27.8259 79.3062Z" fill="#E6E6E6"/>
<path d="M25.6277 73.4868L25.1641 73.6999C25.59 74.6298 25.9893 75.5842 26.3508 76.5385L26.8278 76.3587C26.4617 75.3933 26.0602 74.4256 25.6277 73.4868Z" fill="#E6E6E6"/>
<path d="M22.655 68.0317L22.2246 68.3047C22.7725 69.1658 23.2983 70.0581 23.7863 70.9525L24.2344 70.7083C23.7419 69.8028 23.2095 68.9017 22.655 68.0317Z" fill="#E6E6E6"/>
<path d="M18.9595 63.0312L18.5713 63.3619C19.2323 64.1387 19.8756 64.951 20.4834 65.7722L20.8916 65.4682C20.2793 64.6381 19.6294 63.8169 18.9595 63.0312Z" fill="#E6E6E6"/>
<path d="M14.6158 58.5796L14.2764 58.9591C15.0394 59.6405 15.787 60.3573 16.4991 61.0875L16.8651 60.7302C16.1442 59.9911 15.3877 59.2676 14.6158 58.5796Z" fill="#E6E6E6"/>
<path d="M9.70901 54.7573L9.42285 55.179C10.2702 55.7494 11.1087 56.3575 11.914 56.9856L12.229 56.5839C11.4126 55.9491 10.5653 55.3344 9.70901 54.7573Z" fill="#E6E6E6"/>
<path d="M5.24414 52.103V52.6801C5.77431 52.9575 6.30003 53.2482 6.81467 53.5456L7.06977 53.104C6.47083 52.7577 5.86229 52.4241 5.24414 52.103Z" fill="#E6E6E6"/>
<path d="M29.2373 91.6562L29.7472 91.647C29.7566 92.1621 29.7573 92.68 29.7493 93.1864L29.2394 93.1784C29.2472 92.6778 29.2465 92.1657 29.2373 91.6562Z" fill="#E6E6E6"/>
<path d="M131.687 63.4019L131.184 63.4795C131.341 64.4871 131.465 65.5169 131.556 66.5356L132.064 66.4913C131.973 65.4592 131.847 64.4206 131.687 63.4019Z" fill="#E6E6E6"/>
<path d="M130.309 57.3345L129.821 57.4832C130.116 58.4597 130.38 59.4607 130.604 60.4572L131.103 60.344C130.875 59.3364 130.607 58.3243 130.309 57.3345Z" fill="#E6E6E6"/>
<path d="M128.111 51.5151L127.647 51.7282C128.073 52.6581 128.473 53.6125 128.834 54.5668L129.311 54.387C128.945 53.4216 128.544 52.4539 128.111 51.5151Z" fill="#E6E6E6"/>
<path d="M125.138 46.0596L124.708 46.3326C125.256 47.1937 125.782 48.0859 126.27 48.9803L126.718 48.7362C126.225 47.8307 125.693 46.9296 125.138 46.0596Z" fill="#E6E6E6"/>
<path d="M121.443 41.0596L121.055 41.3903C121.716 42.167 122.359 42.9793 122.967 43.8005L123.375 43.4965C122.763 42.6664 122.113 41.8452 121.443 41.0596Z" fill="#E6E6E6"/>
<path d="M117.099 36.6074L116.76 36.9869C117.523 37.6683 118.27 38.3852 118.982 39.1153L119.348 38.758C118.628 38.019 117.871 37.2954 117.099 36.6074Z" fill="#E6E6E6"/>
<path d="M112.192 32.7856L111.906 33.2073C112.754 33.7777 113.592 34.3858 114.397 35.0139L114.712 34.6122C113.896 33.9775 113.049 33.3627 112.192 32.7856Z" fill="#E6E6E6"/>
<path d="M107.728 30.1313V30.7084C108.258 30.9858 108.783 31.2766 109.298 31.574L109.553 31.1323C108.954 30.7861 108.346 30.4524 107.728 30.1313Z" fill="#E6E6E6"/>
<path d="M131.722 69.6841L132.232 69.6748C132.241 70.1899 132.242 70.7078 132.234 71.2142L131.724 71.2062C131.732 70.7056 131.731 70.1935 131.722 69.6841Z" fill="#E6E6E6"/>
<path d="M33.1176 44.3647H32.7416V43.9883H32.6682V44.3647H32.292V44.4379H32.6682V44.8143H32.7416V44.4379H33.1176V44.3647Z" fill="#F2F2F2"/>
<path d="M28.7827 67.0815H28.4067V66.7051H28.3332V67.0815H27.957V67.155H28.3332V67.5311H28.4067V67.155H28.7827V67.0815Z" fill="#F2F2F2"/>
<path d="M16.0639 86.9909H15.6877V86.6147H15.6143V86.9909H15.2383V87.0644H15.6143V87.4408H15.6877V87.0644H16.0639V86.9909Z" fill="#F2F2F2"/>
<path d="M51.4458 61.7399C47.8093 56.3316 46.2304 49.7986 46.9953 43.3255C47.7602 36.8524 50.8184 30.8678 55.6151 26.4571C60.4119 22.0464 66.6297 19.5016 73.1409 19.2842C79.6521 19.0668 86.0257 21.1912 91.1057 25.2721C96.1857 29.353 99.6359 35.1202 100.83 41.5279C102.025 47.9355 100.885 54.5594 97.617 60.1982C94.349 65.837 89.1695 70.1174 83.0177 72.2631C76.866 74.4088 70.1494 74.2779 64.0859 71.8939C63.6928 73.2977 62.9579 74.5821 61.947 75.6321C60.9361 76.682 59.6807 77.4648 58.2933 77.9103C56.9059 78.3558 55.4297 78.4502 53.9969 78.1849C52.5641 77.9196 51.2194 77.303 50.0832 76.3903C48.947 75.4775 48.0547 74.2971 47.4863 72.9548C46.9178 71.6124 46.691 70.15 46.826 68.6984C46.961 67.2468 47.4537 65.8513 48.2599 64.637C49.0662 63.4226 50.1608 62.4272 51.4458 61.7399Z" fill="#414141"/>
<path d="M73.896 30.9468C80.1413 30.9468 84.4381 34.4126 84.4381 39.3947C84.4381 42.6939 82.8393 44.9767 79.7583 46.7929C76.8605 48.4759 75.8779 49.7089 75.8779 51.8417C75.8779 52.0146 75.8439 52.1858 75.7777 52.3455C75.7116 52.5052 75.6147 52.6503 75.4925 52.7725C75.3704 52.8947 75.2253 52.9917 75.0657 53.0579C74.9061 53.124 74.735 53.1581 74.5622 53.1581H71.3695C71.0285 53.1581 70.7008 53.0256 70.4555 52.7886C70.2102 52.5516 70.0665 52.2286 70.0546 51.8876L70.049 51.7251C69.7658 48.2926 70.9649 46.1598 73.9793 44.3935C76.7939 42.7106 77.9763 41.6442 77.9763 39.578C77.9763 37.5119 75.9778 35.9956 73.4964 35.9956C71.6103 35.9956 70.1176 36.9141 69.433 38.4137C69.1924 38.9214 68.8115 39.3495 68.3354 39.6473C67.8592 39.9452 67.3078 40.1004 66.7463 40.0946C64.583 40.0946 63.1539 37.7929 64.1656 35.8798C65.766 32.8535 69.1426 30.9468 73.896 30.9468ZM69.516 59.5065C69.516 57.5903 71.1148 56.074 73.08 56.074C75.0618 56.074 76.6606 57.5737 76.6606 59.5065C76.6606 61.4394 75.0618 62.939 73.08 62.939C71.0981 62.939 69.516 61.4394 69.516 59.5065Z" fill="#FFE031"/>
</g>
<defs>
<clipPath id="clip0_448_1195">
<rect width="245" height="177" fill="white"/>
</clipPath>
</defs>
</svg>
