<svg width="16" height="16" viewBox="0 0 16 16" fill="none" xmlns="http://www.w3.org/2000/svg">
<g clip-path="url(#clip0_452_778)">
<path d="M15.9066 7.73375C13.3947 4.68915 10.6938 3.19207 7.87877 3.26421C3.33709 3.39117 0.21077 7.57426 0.0798468 7.75209C0.0738009 7.76043 0.0696314 7.76961 0.0644194 7.77836C0.0600414 7.78503 0.0560804 7.79191 0.0521193 7.79921C0.0427378 7.81589 0.0348157 7.83257 0.0281444 7.84987C0.0250173 7.85821 0.0223071 7.86655 0.0195969 7.87489C0.0143849 7.89136 0.0100069 7.90783 0.00687975 7.92451C0.00479498 7.93535 0.00354411 7.94619 0.00250173 7.95724C0.00104239 7.97141 0 7.98559 0 7.99997C0 8.01415 0.00104239 8.02833 0.00250173 8.0425C0.00375259 8.05355 0.00500345 8.06418 0.00687975 8.07523C0.0100069 8.09191 0.0143849 8.10838 0.0195969 8.12485C0.0223071 8.13319 0.0250173 8.14153 0.0281444 8.14987C0.0348157 8.16717 0.0429463 8.18385 0.0521193 8.20053C0.0560804 8.20762 0.059833 8.21429 0.0644194 8.22138C0.0696314 8.22992 0.0738009 8.23931 0.0798468 8.24764C0.21077 8.42568 3.33709 12.6086 7.87877 12.7355C7.94903 12.7374 8.01887 12.7385 8.08871 12.7385C10.8279 12.7385 13.457 11.2347 15.9066 8.26599C15.971 8.18802 16.0002 8.09358 16 7.99997C16.0002 7.90616 15.971 7.81172 15.9066 7.73375ZM7.90712 11.9022C4.37594 11.8061 1.67762 8.87579 0.948571 7.99997C1.67762 7.12416 4.37573 4.1936 7.90712 4.09749C10.3717 4.03307 12.7657 5.34606 15.0373 7.99997C12.7659 10.6541 10.3742 11.9735 7.90712 11.9022Z" fill="#A7A7A7"/>
<path d="M8.20889 5.25488C6.69513 5.25488 5.46387 6.48615 5.46387 7.99969C5.46387 9.51345 6.69513 10.7447 8.20889 10.7447C9.72264 10.7447 10.9539 9.51345 10.9539 7.99969C10.9539 6.48615 9.72264 5.25488 8.20889 5.25488ZM8.20889 9.9108C7.15503 9.9108 6.29778 9.05355 6.29778 7.99969C6.29778 6.94605 7.15503 6.08879 8.20889 6.08879C9.26274 6.08879 10.12 6.94605 10.12 7.99969C10.12 9.05334 9.26274 9.9108 8.20889 9.9108Z" fill="#A7A7A7"/>
</g>
<defs>
<clipPath id="clip0_452_778">
<rect width="16" height="16" fill="white"/>
</clipPath>
</defs>
</svg>
