<svg width="16" height="16" viewBox="0 0 16 16" fill="none" xmlns="http://www.w3.org/2000/svg">
<path d="M4.4984 16C4.00594 16 3.70117 15.8988 3.6726 15.889C3.43424 15.8064 3.30334 15.5502 3.37613 15.3085L4.11319 12.8613C1.94342 11.5977 0.611328 9.36618 0.611328 6.95006C0.611328 3.11788 3.92593 0 8.00012 0C12.0743 0 15.3889 3.11788 15.3889 6.95006C15.3889 10.6981 12.2942 13.73 8.32599 13.8915C8.26557 13.9036 8.20146 13.9036 8.13638 13.8886L8.11336 13.8834C7.88197 13.8315 7.72534 13.6153 7.74812 13.3792C7.7708 13.1429 7.9658 12.9608 8.20294 12.954C11.7047 12.853 14.4477 10.2158 14.4477 6.95009C14.4477 3.63686 11.5553 0.94131 8.00012 0.94131C4.44495 0.94131 1.55257 3.63679 1.55257 6.95006C1.55257 9.13798 2.83135 11.155 4.88984 12.2139C5.08299 12.3132 5.18302 12.5319 5.13188 12.7432C5.12761 12.7608 5.12232 12.778 5.11618 12.7949L4.43342 15.062C4.91715 15.0713 5.75167 14.9541 6.73924 14.2158C6.94721 14.0604 7.24246 14.1028 7.39786 14.3109C7.5535 14.5193 7.51099 14.8142 7.30274 14.9698C6.17206 15.8152 5.16402 16 4.4984 16Z" fill="#414141"/>
<path d="M8.00002 5.03958H3.82668C3.6187 5.03958 3.4502 4.87093 3.4502 4.6631C3.4502 4.45523 3.6187 4.28662 3.82668 4.28662H8.00002C8.20799 4.28662 8.3765 4.45527 8.3765 4.6631C8.37654 4.87093 8.20803 5.03958 8.00002 5.03958Z" fill="#414141"/>
<path d="M8.00002 7.36677H3.82668C3.6187 7.36677 3.4502 7.19812 3.4502 6.99025C3.4502 6.78238 3.6187 6.61377 3.82668 6.61377H8.00002C8.20799 6.61377 8.3765 6.78242 8.3765 6.99025C8.37654 7.19812 8.20803 7.36677 8.00002 7.36677Z" fill="#414141"/>
<path d="M8.00002 9.69437H3.82668C3.6187 9.69437 3.4502 9.52572 3.4502 9.31789C3.4502 9.11006 3.6187 8.94141 3.82668 8.94141H8.00002C8.20799 8.94141 8.3765 9.11006 8.3765 9.31789C8.3765 9.52572 8.20803 9.69437 8.00002 9.69437Z" fill="#414141"/>
<path d="M10.2581 5.79227C10.2581 5.84512 10.2478 5.89436 10.2276 5.93982C10.2071 5.98549 10.18 6.02561 10.1465 6.06028C10.1128 6.09511 10.0732 6.12221 10.0277 6.14134C9.98205 6.16065 9.93281 6.17015 9.88017 6.17015C9.77219 6.17015 9.68278 6.13416 9.61195 6.06217C9.54129 5.99018 9.50586 5.90021 9.50586 5.79223C9.50586 5.55244 9.55209 5.32683 9.64451 5.1156C9.73675 4.90458 9.86215 4.7197 10.0205 4.56136C10.1788 4.40301 10.3635 4.27835 10.5747 4.18705C10.7858 4.09593 11.0102 4.05029 11.2478 4.05029C11.4853 4.05029 11.7096 4.09708 11.9208 4.19066C12.1318 4.28424 12.3167 4.4102 12.475 4.56854C12.6334 4.72689 12.7588 4.91176 12.851 5.12279C12.9435 5.33398 12.9897 5.55713 12.9897 5.7922C12.9897 6.26727 12.818 6.68003 12.475 7.03026L11.91 7.55212C11.7179 7.74418 11.622 7.95408 11.622 8.18196C11.622 8.28994 11.5866 8.37935 11.5159 8.45C11.4451 8.52083 11.3557 8.55627 11.2477 8.55627C11.1397 8.55627 11.0498 8.52083 10.9778 8.45C10.9058 8.37935 10.8698 8.28994 10.8698 8.18196C10.8698 7.75007 11.0412 7.36272 11.3845 7.01946L11.9495 6.49399C12.1414 6.29492 12.2374 6.06098 12.2374 5.7922C12.2374 5.65789 12.2109 5.53078 12.1583 5.4107C12.1054 5.29081 12.0342 5.18587 11.944 5.0957C11.8542 5.0059 11.7491 4.93451 11.6292 4.88166C11.5091 4.82898 11.382 4.80249 11.2477 4.80249C11.1109 4.80249 10.9825 4.82825 10.8626 4.87977C10.7425 4.93146 10.6378 5.00177 10.5476 5.0904C10.4578 5.17925 10.387 5.28362 10.3354 5.40352C10.2838 5.52366 10.2581 5.65323 10.2581 5.79227Z" fill="#414141"/>
<path d="M11.7585 9.35676C11.7585 9.49846 11.7087 9.61891 11.6092 9.71855C11.5096 9.81798 11.3889 9.86782 11.2474 9.86782C11.1057 9.86782 10.9852 9.81802 10.8856 9.71855C10.7862 9.61891 10.7363 9.49846 10.7363 9.35676C10.7363 9.21528 10.7861 9.09461 10.8856 8.99497C10.9852 8.89554 11.1057 8.8457 11.2474 8.8457C11.3889 8.8457 11.5096 8.89551 11.6092 8.99497C11.7087 9.09457 11.7585 9.21524 11.7585 9.35676Z" fill="#414141"/>
</svg>
