<svg width="12" height="14" viewBox="0 0 12 14" fill="none" xmlns="http://www.w3.org/2000/svg">
<path d="M6 13.5C5.46957 13.5 4.96086 13.2893 4.58579 12.9142C4.21071 12.5391 4 12.0304 4 11.5C4 11.3674 4.05268 11.2402 4.14645 11.1464C4.24021 11.0527 4.36739 11 4.5 11H7.5C7.63261 11 7.75979 11.0527 7.85355 11.1464C7.94732 11.2402 8 11.3674 8 11.5C8 12.0304 7.78929 12.5391 7.41421 12.9142C7.03914 13.2893 6.53043 13.5 6 13.5ZM5.135 12C5.22291 12.1515 5.34908 12.2773 5.50089 12.3648C5.6527 12.4522 5.82481 12.4982 6 12.4982C6.17519 12.4982 6.3473 12.4522 6.49911 12.3648C6.65092 12.2773 6.77709 12.1515 6.865 12H5.135Z" fill="#414141"/>
<path d="M7 2.5H5C4.86739 2.5 4.74021 2.44732 4.64645 2.35355C4.55268 2.25979 4.5 2.13261 4.5 2C4.5 1.60218 4.65804 1.22064 4.93934 0.93934C5.22064 0.658035 5.60218 0.5 6 0.5C6.39782 0.5 6.77936 0.658035 7.06066 0.93934C7.34196 1.22064 7.5 1.60218 7.5 2C7.5 2.13261 7.44732 2.25979 7.35355 2.35355C7.25979 2.44732 7.13261 2.5 7 2.5Z" fill="#414141"/>
<path d="M11.5 12H0.500001C0.367393 12 0.240216 11.9473 0.146448 11.8536C0.0526796 11.7598 1.05553e-06 11.6326 1.05553e-06 11.5C-0.000437444 10.9353 0.135754 10.3789 0.396953 9.8783C0.658152 9.37767 1.0366 8.94767 1.5 8.625V6C1.49997 4.81171 1.96996 3.67164 2.8074 2.82858C3.64483 1.98552 4.78173 1.50792 5.97 1.5H6.025C7.21847 1.5 8.36307 1.97411 9.20698 2.81802C10.0509 3.66193 10.525 4.80653 10.525 6V8.625C10.9838 8.95043 11.3574 9.38163 11.6141 9.88209C11.8709 10.3826 12.0033 10.9375 12 11.5C12 11.6326 11.9473 11.7598 11.8536 11.8536C11.7598 11.9473 11.6326 12 11.5 12ZM1.05 11H10.95C10.8792 10.6534 10.7356 10.3257 10.5287 10.0387C10.3219 9.75166 10.0564 9.51182 9.75 9.335C9.6737 9.29095 9.61039 9.22752 9.56649 9.15113C9.52259 9.07474 9.49965 8.9881 9.5 8.9V6C9.5 5.07174 9.13125 4.1815 8.47487 3.52513C7.8185 2.86875 6.92826 2.5 6 2.5C5.07174 2.5 4.1815 2.86875 3.52513 3.52513C2.86875 4.1815 2.5 5.07174 2.5 6V8.9C2.50035 8.9881 2.47741 9.07474 2.43351 9.15113C2.38961 9.22752 2.3263 9.29095 2.25 9.335C1.94355 9.51182 1.67813 9.75166 1.47127 10.0387C1.2644 10.3257 1.12082 10.6534 1.05 11Z" fill="#414141"/>
</svg>
