<svg width="14" height="14" viewBox="0 0 14 14" fill="none" xmlns="http://www.w3.org/2000/svg">
<path d="M11 13.5H3C2.33696 13.5 1.70107 13.2366 1.23223 12.7678C0.763392 12.2989 0.5 11.663 0.5 11V4C0.5 3.86739 0.552678 3.74021 0.646447 3.64645C0.740215 3.55268 0.867392 3.5 1 3.5H11C11.663 3.5 12.2989 3.76339 12.7678 4.23223C13.2366 4.70107 13.5 5.33696 13.5 6V11C13.5 11.663 13.2366 12.2989 12.7678 12.7678C12.2989 13.2366 11.663 13.5 11 13.5ZM1.5 4.5V11C1.5 11.3978 1.65804 11.7794 1.93934 12.0607C2.22064 12.342 2.60218 12.5 3 12.5H11C11.3978 12.5 11.7794 12.342 12.0607 12.0607C12.342 11.7794 12.5 11.3978 12.5 11V6C12.5 5.60218 12.342 5.22064 12.0607 4.93934C11.7794 4.65804 11.3978 4.5 11 4.5H1.5Z" fill="black"/>
<path d="M12.0001 4.50011C11.8674 4.50011 11.7403 4.44743 11.6465 4.35366C11.5527 4.25989 11.5001 4.13271 11.5001 4.00011V2.62511C11.5096 2.44995 11.4795 2.27489 11.412 2.11299C11.3445 1.9511 11.2413 1.80654 11.1101 1.69011C10.9922 1.60178 10.8557 1.54147 10.711 1.51375C10.5663 1.48603 10.4172 1.49162 10.2751 1.53011L1.89006 3.43511C1.77726 3.46051 1.67676 3.52421 1.60565 3.61537C1.53455 3.70654 1.49723 3.81952 1.50006 3.93511C1.50006 4.06771 1.44738 4.19489 1.35361 4.28866C1.25984 4.38243 1.13266 4.43511 1.00006 4.43511C0.867447 4.43511 0.74027 4.38243 0.646502 4.28866C0.552734 4.19489 0.500055 4.06771 0.500055 3.93511C0.497122 3.5933 0.611016 3.26075 0.82288 2.99251C1.03474 2.72427 1.33187 2.53643 1.66506 2.46011L10.0551 0.555105C10.3436 0.482143 10.645 0.476201 10.9362 0.537735C11.2274 0.599269 11.5007 0.726646 11.7351 0.910105C11.9829 1.12043 12.1803 1.38373 12.3127 1.68057C12.4451 1.97741 12.5091 2.3002 12.5001 2.62511V4.00011C12.5001 4.13271 12.4474 4.25989 12.3536 4.35366C12.2598 4.44743 12.1327 4.50011 12.0001 4.50011Z" fill="black"/>
<path d="M13 10.5H9.5C8.96957 10.5 8.46086 10.2893 8.08579 9.91421C7.71071 9.53914 7.5 9.03043 7.5 8.5C7.5 7.96957 7.71071 7.46086 8.08579 7.08579C8.46086 6.71071 8.96957 6.5 9.5 6.5H13C13.1326 6.5 13.2598 6.55268 13.3536 6.64645C13.4473 6.74021 13.5 6.86739 13.5 7V10C13.5 10.1326 13.4473 10.2598 13.3536 10.3536C13.2598 10.4473 13.1326 10.5 13 10.5ZM9.5 7.5C9.23478 7.5 8.98043 7.60536 8.79289 7.79289C8.60536 7.98043 8.5 8.23478 8.5 8.5C8.5 8.76522 8.60536 9.01957 8.79289 9.20711C8.98043 9.39464 9.23478 9.5 9.5 9.5H12.5V7.5H9.5Z" fill="black"/>
</svg>
