<svg width="26" height="24" viewBox="0 0 26 24" fill="none" xmlns="http://www.w3.org/2000/svg">
<path d="M14.0002 24C13.735 24 13.4806 23.8947 13.2931 23.7071C13.1056 23.5196 13.0002 23.2652 13.0002 23C13.0002 22.7348 13.1056 22.4804 13.2931 22.2929C13.4806 22.1054 13.735 22 14.0002 22C16.2397 22.0004 18.4146 21.2489 20.1762 19.8662C21.9378 18.4834 23.1843 16.5493 23.7159 14.3738C24.2475 12.1983 24.0335 9.90727 23.1081 7.86788C22.1827 5.8285 20.5995 4.15877 18.6122 3.12625C16.6249 2.09373 14.3485 1.75818 12.1478 2.17337C9.94713 2.58856 7.9495 3.73045 6.47501 5.41608C5.00052 7.10171 4.13454 9.2335 4.01581 11.4699C3.89708 13.7062 4.53249 15.9177 5.82021 17.75C5.97204 17.9664 6.03202 18.2341 5.98704 18.4945C5.94207 18.755 5.7958 18.9871 5.58021 19.14C5.47273 19.2167 5.35112 19.2714 5.22239 19.3009C5.09366 19.3304 4.96036 19.3341 4.8302 19.3118C4.70003 19.2895 4.57558 19.2416 4.46402 19.1709C4.35246 19.1002 4.256 19.0082 4.18021 18.9C2.63504 16.7014 1.87255 14.0478 2.0149 11.3643C2.15725 8.68086 3.19621 6.12282 4.96531 4.10005C6.73441 2.07727 9.13127 0.706843 11.7719 0.208318C14.4125 -0.290207 17.144 0.112026 19.5288 1.35058C21.9136 2.58912 23.8137 4.5923 24.9246 7.03918C26.0356 9.48605 26.293 12.235 25.6558 14.8456C25.0185 17.4562 23.5235 19.7774 21.4101 21.4372C19.2968 23.0971 16.6875 23.9995 14.0002 24Z" fill="#414141"/>
<path d="M6 20H1C0.734784 20 0.48043 19.8946 0.292893 19.7071C0.105357 19.5196 0 19.2652 0 19C0 18.7348 0.105357 18.4804 0.292893 18.2929C0.48043 18.1054 0.734784 18 1 18H5V14C5 13.7348 5.10536 13.4804 5.29289 13.2929C5.48043 13.1054 5.73478 13 6 13C6.26522 13 6.51957 13.1054 6.70711 13.2929C6.89464 13.4804 7 13.7348 7 14V19C7 19.2652 6.89464 19.5196 6.70711 19.7071C6.51957 19.8946 6.26522 20 6 20Z" fill="#414141"/>
<path d="M10.9999 16C10.8683 16.0008 10.7379 15.9755 10.616 15.9258C10.4942 15.876 10.3834 15.8027 10.2899 15.71C10.1962 15.617 10.1218 15.5064 10.071 15.3846C10.0203 15.2627 9.99414 15.132 9.99414 15C9.99414 14.868 10.0203 14.7373 10.071 14.6154C10.1218 14.4936 10.1962 14.383 10.2899 14.29L12.9999 11.59V7C12.9999 6.73478 13.1053 6.48043 13.2928 6.29289C13.4804 6.10536 13.7347 6 13.9999 6C14.2652 6 14.5195 6.10536 14.707 6.29289C14.8946 6.48043 14.9999 6.73478 14.9999 7V12C15.0007 12.1316 14.9755 12.2621 14.9257 12.3839C14.8759 12.5057 14.8026 12.6166 14.7099 12.71L11.7099 15.71C11.6165 15.8027 11.5057 15.876 11.3838 15.9258C11.262 15.9755 11.1315 16.0008 10.9999 16Z" fill="#414141"/>
</svg>
