<svg width="14" height="14" viewBox="0 0 14 14" fill="none" xmlns="http://www.w3.org/2000/svg">
<path d="M7 13.5C5.71442 13.5 4.45772 13.1188 3.3888 12.4046C2.31988 11.6903 1.48676 10.6752 0.994786 9.48744C0.502816 8.29973 0.374095 6.99279 0.624899 5.73192C0.875703 4.47104 1.49477 3.31285 2.40381 2.40381C3.31285 1.49477 4.47104 0.875703 5.73192 0.624899C6.99279 0.374095 8.29973 0.502816 9.48744 0.994786C10.6752 1.48676 11.6903 2.31988 12.4046 3.3888C13.1188 4.45772 13.5 5.71442 13.5 7C13.5 8.72391 12.8152 10.3772 11.5962 11.5962C10.3772 12.8152 8.72391 13.5 7 13.5ZM7 1.5C5.91221 1.5 4.84884 1.82257 3.94437 2.42692C3.0399 3.03127 2.33495 3.89025 1.91867 4.89524C1.50238 5.90024 1.39347 7.0061 1.60568 8.073C1.8179 9.1399 2.34173 10.1199 3.11092 10.8891C3.8801 11.6583 4.86011 12.1821 5.92701 12.3943C6.9939 12.6065 8.09977 12.4976 9.10476 12.0813C10.1098 11.6651 10.9687 10.9601 11.5731 10.0556C12.1774 9.15117 12.5 8.0878 12.5 7C12.5 5.54131 11.9205 4.14237 10.8891 3.11092C9.85764 2.07947 8.45869 1.5 7 1.5Z" fill="black"/>
<path d="M9.75001 10.25C9.68421 10.2504 9.61897 10.2378 9.55806 10.2129C9.49714 10.188 9.44173 10.1513 9.39501 10.105L6.64501 7.355C6.59867 7.30828 6.56201 7.25287 6.53712 7.19195C6.51224 7.13103 6.49963 7.0658 6.50001 7V3C6.50001 2.86739 6.55269 2.74021 6.64646 2.64645C6.74022 2.55268 6.8674 2.5 7.00001 2.5C7.13262 2.5 7.25979 2.55268 7.35356 2.64645C7.44733 2.74021 7.50001 2.86739 7.50001 3V6.795L10.105 9.395C10.1519 9.44148 10.1891 9.49678 10.2145 9.55771C10.2398 9.61864 10.2529 9.68399 10.2529 9.75C10.2529 9.81601 10.2398 9.88136 10.2145 9.94229C10.1891 10.0032 10.1519 10.0585 10.105 10.105C10.0583 10.1513 10.0029 10.188 9.94196 10.2129C9.88104 10.2378 9.81581 10.2504 9.75001 10.25Z" fill="black"/>
</svg>
